<?xml version="1.0" encoding="utf-8"?>
<!-- Generator: Adobe Illustrator 16.0.0, SVG Export Plug-In . SVG Version: 6.00 Build 0)  -->
<!DOCTYPE svg PUBLIC "-//W3C//DTD SVG 1.1//EN" "http://www.w3.org/Graphics/SVG/1.1/DTD/svg11.dtd">
<svg version="1.1" id="Capa_1" xmlns="http://www.w3.org/2000/svg" xmlns:xlink="http://www.w3.org/1999/xlink" x="0px" y="0px"
	 width="1200px" height="1200px" viewBox="0 0 1200 1200" enable-background="new 0 0 1200 1200" xml:space="preserve">
<rect id="fondo" fill="#415360" width="1200" height="1200"/>
<defs>
	<filter id="Adobe_OpacityMaskFilter" filterUnits="userSpaceOnUse" x="-220.375" y="-24.167" width="1676.832" height="1248.404">
		<feColorMatrix  type="matrix" values="1 0 0 0 0  0 1 0 0 0  0 0 1 0 0  0 0 0 1 0"/>
	</filter>
</defs>
<mask maskUnits="userSpaceOnUse" x="-220.375" y="-24.167" width="1676.832" height="1248.404" id="SVGID_1_">
	<g filter="url(#Adobe_OpacityMaskFilter)">
		<rect fill="#FFFFFF" width="1200" height="1200"/>
	</g>
</mask>
<g mask="url(#SVGID_1_)">
	<g id="huellas">
		<g>
			<path fill="#40B8A8" d="M376.438,595.172c0.696-4.858,2.438-9.686,4.957-13.729c13.782-22.129,42.758-21.598,57.844-1.614
				c3.878,5.138,6.833,11.525,7.52,18.458c0.688,6.933-1.132,14.405-5.43,19.019c-4.297,4.614-11.146,5.731-15.893,1.828
				c-1.969-1.619-3.874-3.912-5.068-6.144c-1.283-2.396-2.572-4.877-5.228-5.987c-1.137-0.475-2.393-0.62-3.625-0.564
				c-3.931,0.177-7.096,2.129-8.852,5.539c-1.46,2.835-2.989,6.045-6.083,7.385c-2.114,0.916-4.445,0.854-6.641,0.292
				C378.443,616.715,374.905,605.87,376.438,595.172z"/>
			<g>
				<g>
					<path fill="#40B8A8" d="M392.427,538.555c-9.709,3.603-11.738,17.828-1.382,22.029c4.388,1.78,9.822,0.559,13.027-2.926
						c3.205-3.485,3.967-9.001,1.828-13.226C403.554,539.801,397.477,536.681,392.427,538.555z"/>
					<path fill="#40B8A8" d="M423.301,538.555c-9.709,3.603-11.738,17.828-1.381,22.029c4.388,1.78,9.821,0.559,13.027-2.926
						s3.968-9.001,1.828-13.226C434.428,539.801,428.351,536.681,423.301,538.555z"/>
				</g>
				<path fill="#40B8A8" d="M448.884,558.563c-8.125,1.796-10.538,12.653-4.524,18.249c4.47,4.16,12.477,3.538,16.25-1.262
					C467.416,566.894,458.722,556.388,448.884,558.563z"/>
				<path fill="#40B8A8" d="M367.846,558.563c-8.126,1.796-10.538,12.653-4.525,18.249c4.47,4.16,12.477,3.538,16.251-1.262
					C386.377,566.894,377.683,556.388,367.846,558.563z"/>
			</g>
		</g>
		<g>
			<path fill="#40B8A8" d="M-181.121,497.038c-0.636-4.866-0.257-9.985,1.08-14.556c7.319-25.021,35.37-32.306,55.276-17.119
				c5.118,3.904,9.682,9.261,12.209,15.754c2.527,6.493,2.786,14.178-0.112,19.778s-9.192,8.519-14.815,6.037
				c-2.333-1.03-4.784-2.725-6.535-4.553c-1.88-1.962-3.79-4.006-6.646-4.36c-1.223-0.152-2.472,0.046-3.643,0.431
				c-3.738,1.228-6.261,3.96-7.035,7.717c-0.644,3.123-1.253,6.626-3.872,8.749c-1.79,1.451-4.052,2.019-6.317,2.068
				C-173.393,517.247-179.719,507.753-181.121,497.038z"/>
			<g>
				<g>
					<path fill="#40B8A8" d="M-180.956,438.207c-8.381,6.082-6.508,20.329,4.597,21.588c4.705,0.533,9.61-2.104,11.759-6.324
						c2.149-4.219,1.399-9.737-1.798-13.229C-169.904,436.412-176.597,435.043-180.956,438.207z"/>
					<path fill="#40B8A8" d="M-151.22,429.899c-8.381,6.083-6.508,20.329,4.597,21.588c4.706,0.533,9.61-2.104,11.759-6.323
						c2.149-4.22,1.399-9.737-1.798-13.23C-140.168,428.104-146.861,426.735-151.22,429.899z"/>
				</g>
				<path fill="#40B8A8" d="M-121.197,442.285c-7.343,3.917-6.745,15.022,0.553,18.794c5.424,2.803,12.969,0.05,15.312-5.589
					C-101.107,445.323-112.308,437.543-121.197,442.285z"/>
				<path fill="#40B8A8" d="M-199.247,464.09c-7.342,3.917-6.745,15.022,0.553,18.793c5.424,2.804,12.969,0.05,15.312-5.588
					C-179.157,467.128-190.357,459.349-199.247,464.09z"/>
			</g>
		</g>
		<g>
			<path fill="#40B8A8" d="M35.583,746.169c1.978-4.492,4.955-8.673,8.468-11.889c19.228-17.604,46.993-9.296,56.145,14.01
				c2.353,5.991,3.48,12.938,2.276,19.801c-1.204,6.862-4.966,13.568-10.347,16.856c-5.38,3.288-12.276,2.521-15.799-2.516
				c-1.461-2.09-2.678-4.811-3.229-7.281c-0.59-2.652-1.165-5.39-3.423-7.173c-0.968-0.764-2.138-1.241-3.339-1.52
				c-3.833-0.888-7.407,0.142-10.016,2.953c-2.169,2.338-4.506,5.018-7.846,5.476c-2.282,0.313-4.511-0.374-6.475-1.505
				C31.717,767.457,31.228,756.059,35.583,746.169z"/>
			<g>
				<g>
					<path fill="#40B8A8" d="M66.217,695.942c-10.32,0.857-16.103,14.013-7.258,20.845c3.747,2.895,9.309,3.182,13.333,0.688
						c4.025-2.495,6.244-7.603,5.319-12.246C76.598,700.136,71.584,695.497,66.217,695.942z"/>
					<path fill="#40B8A8" d="M95.952,704.25c-10.32,0.857-16.102,14.013-7.258,20.845c3.747,2.895,9.309,3.182,13.334,0.688
						c4.025-2.495,6.243-7.603,5.319-12.247C106.333,708.444,101.319,703.804,95.952,704.25z"/>
				</g>
				<path fill="#40B8A8" d="M115.208,730.404c-8.31-0.457-13.554,9.351-9.269,16.358c3.186,5.209,11.065,6.765,15.991,3.157
					C130.814,743.414,125.268,730.957,115.208,730.404z"/>
				<path fill="#40B8A8" d="M37.159,708.597c-8.31-0.456-13.554,9.352-9.268,16.359c3.186,5.209,11.065,6.764,15.991,3.156
					C52.765,721.608,47.218,709.15,37.159,708.597z"/>
			</g>
		</g>
		<g>
			<path fill="#40B8A8" d="M1086.438,523.172c0.696-4.858,2.438-9.686,4.956-13.729c13.782-22.129,42.759-21.598,57.844-1.614
				c3.879,5.138,6.833,11.525,7.521,18.458c0.688,6.934-1.132,14.405-5.43,19.019s-11.146,5.731-15.894,1.828
				c-1.969-1.619-3.873-3.912-5.068-6.143c-1.282-2.396-2.571-4.877-5.228-5.987c-1.138-0.476-2.394-0.621-3.625-0.565
				c-3.931,0.177-7.095,2.129-8.852,5.54c-1.46,2.835-2.989,6.045-6.083,7.385c-2.113,0.916-4.445,0.854-6.641,0.292
				C1088.442,544.715,1084.904,533.87,1086.438,523.172z"/>
			<g>
				<g>
					<path fill="#40B8A8" d="M1102.427,466.555c-9.709,3.603-11.737,17.828-1.381,22.029c4.388,1.78,9.821,0.559,13.026-2.926
						c3.206-3.485,3.968-9.001,1.828-13.226C1113.554,467.801,1107.477,464.681,1102.427,466.555z"/>
					<path fill="#40B8A8" d="M1133.301,466.555c-9.709,3.603-11.737,17.828-1.381,22.029c4.388,1.78,9.821,0.559,13.026-2.926
						c3.206-3.485,3.968-9.001,1.828-13.226C1144.428,467.801,1138.351,464.681,1133.301,466.555z"/>
				</g>
				<path fill="#40B8A8" d="M1158.885,486.563c-8.126,1.796-10.538,12.653-4.525,18.249c4.471,4.16,12.478,3.538,16.251-1.262
					C1177.415,494.894,1168.722,484.388,1158.885,486.563z"/>
				<path fill="#40B8A8" d="M1077.846,486.563c-8.125,1.796-10.537,12.653-4.524,18.249c4.47,4.16,12.478,3.538,16.251-1.262
					C1096.377,494.894,1087.684,484.388,1077.846,486.563z"/>
			</g>
		</g>
		<g>
			<path fill="#40B8A8" d="M649.208,473.624c2.498-4.225,5.951-8.022,9.821-10.798c21.185-15.194,47.765-3.645,54.081,20.584
				c1.624,6.229,1.918,13.26-0.093,19.931c-2.012,6.671-6.544,12.882-12.277,15.507s-12.489,1.044-15.388-4.376
				c-1.202-2.248-2.088-5.094-2.341-7.612c-0.271-2.704-0.516-5.49-2.547-7.529c-0.87-0.874-1.975-1.487-3.135-1.906
				c-3.7-1.336-7.371-0.739-10.296,1.742c-2.431,2.063-5.07,4.447-8.44,4.504c-2.304,0.04-4.436-0.908-6.25-2.265
				C642.839,494.301,643.708,482.927,649.208,473.624z"/>
			<g>
				<g>
					<path fill="#40B8A8" d="M685.595,427.394c-10.349-0.375-17.653,11.999-9.684,19.834c3.376,3.32,8.864,4.266,13.157,2.267
						c4.293-1.998,7.104-6.806,6.737-11.527C695.404,432.792,690.977,427.589,685.595,427.394z"/>
					<path fill="#40B8A8" d="M714.132,439.177c-10.349-0.375-17.653,11.999-9.684,19.834c3.376,3.32,8.864,4.265,13.157,2.267
						s7.104-6.806,6.737-11.527C723.941,444.575,719.515,439.373,714.132,439.177z"/>
				</g>
				<path fill="#40B8A8" d="M730.143,467.435c-8.196-1.441-14.569,7.673-11.146,15.141c2.544,5.551,10.183,8.032,15.502,5.035
					C744.092,482.207,740.065,469.179,730.143,467.435z"/>
				<path fill="#40B8A8" d="M655.238,436.506c-8.196-1.441-14.569,7.673-11.146,15.141c2.544,5.55,10.183,8.031,15.502,5.035
					C669.188,451.279,665.161,438.25,655.238,436.506z"/>
			</g>
		</g>
		<g>
			<path fill="#40B8A8" d="M886.008,768.417c-1.216-4.755-1.454-9.882-0.675-14.58c4.264-25.719,31.237-36.317,52.822-23.629
				c5.549,3.263,10.724,8.032,14.012,14.175s4.467,13.741,2.263,19.649c-2.205,5.907-8.104,9.561-13.983,7.771
				c-2.439-0.742-5.076-2.132-7.034-3.736c-2.102-1.723-4.243-3.521-7.121-3.53c-1.232-0.004-2.448,0.342-3.565,0.865
				c-3.563,1.667-5.74,4.683-6.058,8.505c-0.264,3.178-0.448,6.729-2.794,9.15c-1.603,1.655-3.78,2.49-6.023,2.812
				C896.104,787.552,888.685,778.887,886.008,768.417z"/>
			<g>
				<g>
					<path fill="#40B8A8" d="M879.111,709.991c-7.591,7.044-4.021,20.963,7.154,20.88c4.735-0.035,9.287-3.241,10.915-7.688
						c1.628-4.446,0.221-9.835-3.373-12.918C889.868,706.883,883.059,706.328,879.111,709.991z"/>
					<path fill="#40B8A8" d="M907.635,698.175c-7.591,7.044-4.021,20.963,7.154,20.88c4.735-0.035,9.288-3.242,10.915-7.688
						c1.628-4.447,0.221-9.835-3.373-12.919C918.392,695.068,911.583,694.511,907.635,698.175z"/>
				</g>
				<path fill="#40B8A8" d="M938.928,706.869c-6.819,4.77-4.894,15.723,2.804,18.592c5.722,2.132,12.881-1.508,14.53-7.387
					C959.236,707.473,947.184,701.094,938.928,706.869z"/>
				<path fill="#40B8A8" d="M864.059,737.882c-6.819,4.77-4.893,15.724,2.804,18.592c5.722,2.133,12.882-1.507,14.53-7.386
					C884.367,738.488,872.314,732.109,864.059,737.882z"/>
			</g>
		</g>
		<g>
			<path fill="#40B8A8" d="M360.449,275.835c-0.938-4.817-0.878-9.949,0.171-14.595c5.747-25.428,33.289-34.446,54.103-20.528
				c5.351,3.578,10.24,8.64,13.167,14.963c2.927,6.323,3.663,13.977,1.12,19.747s-8.644,9.075-14.41,6.948
				c-2.392-0.882-4.944-2.422-6.806-4.137c-1.999-1.841-4.032-3.762-6.904-3.938c-1.231-0.075-2.464,0.2-3.61,0.657
				c-3.654,1.458-6.002,4.342-6.54,8.14c-0.448,3.157-0.838,6.691-3.319,8.973c-1.696,1.56-3.918,2.267-6.176,2.458
				C369.42,295.524,362.516,286.443,360.449,275.835z"/>
			<g>
				<g>
					<path fill="#40B8A8" d="M356.95,217.108c-7.986,6.593-5.229,20.695,5.933,21.26c4.729,0.239,9.46-2.699,11.342-7.043
						c1.883-4.345,0.79-9.806-2.619-13.092C367.868,214.629,361.104,213.679,356.95,217.108z"/>
					<path fill="#40B8A8" d="M386.11,206.965c-7.986,6.592-5.229,20.695,5.932,21.26c4.729,0.239,9.46-2.699,11.343-7.044
						c1.882-4.345,0.79-9.805-2.619-13.092C397.029,204.486,390.264,203.536,386.11,206.965z"/>
				</g>
				<path fill="#40B8A8" d="M416.847,217.457c-7.084,4.366-5.796,15.413,1.722,18.723c5.588,2.46,12.947-0.758,14.934-6.532
					C437.086,219.237,425.423,212.171,416.847,217.457z"/>
				<path fill="#40B8A8" d="M340.307,244.081c-7.084,4.367-5.796,15.413,1.722,18.723c5.588,2.46,12.947-0.758,14.934-6.532
					C360.546,245.861,348.883,238.795,340.307,244.081z"/>
			</g>
		</g>
		<g>
			<path fill="#40B8A8" d="M-189.65,54.354c2.953-3.92,6.807-7.309,10.963-9.637c22.744-12.741,47.873,1.697,51.453,26.478
				c0.92,6.371,0.429,13.391-2.312,19.796c-2.742,6.405-7.938,12.074-13.928,14.044c-5.99,1.97-12.528-0.354-14.805-6.063
				c-0.944-2.368-1.507-5.295-1.478-7.826c0.032-2.717,0.099-5.513-1.692-7.766c-0.768-0.965-1.797-1.698-2.903-2.243
				c-3.529-1.74-7.243-1.556-10.426,0.584c-2.646,1.779-5.534,3.854-8.89,3.537c-2.293-0.217-4.306-1.396-5.958-2.946
				C-198.282,74.194-196.152,62.987-189.65,54.354z"/>
			<g>
				<g>
					<path fill="#40B8A8" d="M-148.342,12.464c-10.243-1.525-18.88,9.958-11.833,18.633c2.986,3.675,8.334,5.226,12.824,3.718
						c4.489-1.508,7.816-5.973,7.979-10.705C-139.195,18.921-143.015,13.257-148.342,12.464z"/>
					<path fill="#40B8A8" d="M-121.294,27.352c-10.243-1.525-18.88,9.958-11.833,18.632c2.986,3.675,8.334,5.226,12.823,3.718
						s7.817-5.973,7.979-10.706C-112.147,33.809-115.967,28.145-121.294,27.352z"/>
				</g>
				<path fill="#40B8A8" d="M-108.53,57.216c-7.985-2.344-15.333,6.003-12.764,13.806c1.91,5.799,9.225,9.115,14.846,6.73
					C-96.313,73.45-98.863,60.054-108.53,57.216z"/>
				<path fill="#40B8A8" d="M-179.524,18.139c-7.985-2.344-15.333,6.004-12.764,13.806c1.91,5.799,9.225,9.115,14.846,6.73
					C-167.308,34.374-169.858,20.978-179.524,18.139z"/>
			</g>
		</g>
		<g>
			<path fill="#40B8A8" d="M35.518,330.691c2.034-4.466,5.064-8.609,8.617-11.781c19.448-17.36,47.106-8.703,55.963,14.716
				c2.277,6.021,3.316,12.981,2.026,19.828c-1.29,6.847-5.137,13.505-10.559,16.725c-5.422,3.219-12.308,2.366-15.766-2.715
				c-1.435-2.108-2.618-4.844-3.137-7.321c-0.558-2.66-1.097-5.404-3.333-7.216c-0.958-0.776-2.122-1.269-3.32-1.562
				c-3.822-0.936-7.408,0.048-10.052,2.827c-2.198,2.31-4.569,4.961-7.914,5.376c-2.286,0.284-4.506-0.431-6.455-1.587
				C31.384,351.928,31.038,340.525,35.518,330.691z"/>
			<g>
				<g>
					<path fill="#40B8A8" d="M66.782,280.854c-10.331,0.727-16.278,13.808-7.52,20.751c3.71,2.942,9.268,3.298,13.324,0.855
						s6.339-7.523,5.473-12.178C77.11,285.178,72.155,280.476,66.782,280.854z"/>
					<path fill="#40B8A8" d="M96.41,289.536c-10.33,0.728-16.277,13.808-7.52,20.751c3.71,2.942,9.268,3.298,13.324,0.855
						s6.339-7.523,5.473-12.178C106.738,293.86,101.783,289.157,96.41,289.536z"/>
				</g>
				<path fill="#40B8A8" d="M115.335,315.93c-8.303-0.561-13.671,9.179-9.474,16.24c3.12,5.249,10.979,6.903,15.95,3.358
					C130.776,329.136,125.387,316.609,115.335,315.93z"/>
				<path fill="#40B8A8" d="M37.567,293.143c-8.303-0.561-13.671,9.179-9.474,16.24c3.12,5.249,10.979,6.903,15.95,3.358
					C53.007,306.348,47.619,293.822,37.567,293.143z"/>
			</g>
		</g>
		<g>
			<path fill="#40B8A8" d="M218.518,25.691c2.034-4.466,5.064-8.609,8.617-11.781c19.448-17.36,47.106-8.703,55.963,14.716
				c2.277,6.021,3.316,12.981,2.026,19.828c-1.29,6.847-5.137,13.505-10.559,16.725s-12.308,2.366-15.766-2.715
				c-1.435-2.108-2.618-4.844-3.137-7.321c-0.558-2.66-1.097-5.404-3.333-7.216c-0.958-0.776-2.122-1.269-3.32-1.562
				c-3.822-0.936-7.408,0.048-10.052,2.827c-2.198,2.31-4.569,4.961-7.914,5.376c-2.286,0.284-4.506-0.431-6.455-1.587
				C214.384,46.928,214.038,35.525,218.518,25.691z"/>
			<g>
				<g>
					<path fill="#40B8A8" d="M249.782-24.146c-10.331,0.727-16.278,13.808-7.52,20.751c3.71,2.942,9.268,3.298,13.324,0.855
						s6.339-7.523,5.473-12.178C260.11-19.822,255.155-24.524,249.782-24.146z"/>
					<path fill="#40B8A8" d="M279.41-15.464c-10.33,0.728-16.277,13.808-7.52,20.751c3.71,2.942,9.268,3.298,13.324,0.855
						s6.339-7.523,5.473-12.178C289.738-11.14,284.783-15.843,279.41-15.464z"/>
				</g>
				<path fill="#40B8A8" d="M298.335,10.93c-8.303-0.561-13.671,9.179-9.474,16.24c3.12,5.249,10.979,6.903,15.95,3.358
					C313.776,24.136,308.387,11.609,298.335,10.93z"/>
				<path fill="#40B8A8" d="M220.567-11.857c-8.303-0.561-13.671,9.179-9.474,16.24c3.12,5.249,10.979,6.903,15.95,3.358
					C236.007,1.348,230.619-11.178,220.567-11.857z"/>
			</g>
		</g>
		<g>
			<path fill="#40B8A8" d="M1100.906,86.25c-1.367-4.713-1.769-9.83-1.141-14.552c3.438-25.842,30.059-37.298,52.039-25.307
				c5.65,3.083,10.975,7.685,14.458,13.719s4.904,13.591,2.89,19.566c-2.014,5.976-7.793,9.815-13.728,8.215
				c-2.461-0.664-5.142-1.968-7.149-3.509c-2.156-1.654-4.354-3.384-7.23-3.301c-1.232,0.036-2.437,0.42-3.536,0.979
				c-3.508,1.781-5.587,4.864-5.782,8.695c-0.162,3.185-0.232,6.74-2.499,9.236c-1.549,1.705-3.699,2.609-5.931,3.002
				C1111.61,105.053,1103.917,96.629,1100.906,86.25z"/>
			<g>
				<g>
					<path fill="#40B8A8" d="M1092.144,28.075c-7.361,7.283-3.349,21.081,7.819,20.641c4.731-0.187,9.18-3.538,10.663-8.034
						c1.484-4.497-0.094-9.837-3.784-12.804C1102.795,24.625,1095.973,24.287,1092.144,28.075z"/>
					<path fill="#40B8A8" d="M1120.274,15.353c-7.361,7.284-3.349,21.081,7.819,20.641c4.731-0.187,9.179-3.538,10.663-8.034
						c1.485-4.497-0.094-9.837-3.784-12.804C1130.927,11.902,1124.104,11.564,1120.274,15.353z"/>
				</g>
				<path fill="#40B8A8" d="M1151.83,23.04c-6.664,4.985-4.388,15.872,3.396,18.493c5.787,1.948,12.826-1.918,14.287-7.847
					C1172.147,22.995,1159.896,17.005,1151.83,23.04z"/>
				<path fill="#40B8A8" d="M1077.992,56.434c-6.664,4.985-4.388,15.872,3.396,18.493c5.787,1.948,12.826-1.918,14.287-7.847
					C1098.31,56.389,1086.059,50.399,1077.992,56.434z"/>
			</g>
		</g>
		<g>
			<path fill="#40B8A8" d="M1367.566,328.463c3.144-3.769,7.161-6.962,11.428-9.081c23.349-11.594,47.729,4.074,50.073,29.002
				c0.603,6.409-0.237,13.396-3.294,19.657c-3.056,6.261-8.527,11.665-14.608,13.334c-6.08,1.67-12.494-0.976-14.485-6.791
				c-0.825-2.412-1.242-5.363-1.087-7.89c0.167-2.712,0.373-5.501-1.305-7.841c-0.719-1.002-1.711-1.785-2.788-2.384
				c-3.438-1.914-7.156-1.914-10.441,0.065c-2.731,1.646-5.719,3.575-9.056,3.09c-2.279-0.331-4.23-1.608-5.805-3.239
				C1357.959,347.849,1360.644,336.761,1367.566,328.463z"/>
			<g>
				<g>
					<path fill="#40B8A8" d="M1410.904,288.677c-10.154-2.033-19.351,9.007-12.743,18.021c2.8,3.819,8.064,5.634,12.623,4.351
						c4.558-1.283,8.104-5.577,8.501-10.296C1419.72,295.581,1416.186,289.734,1410.904,288.677z"/>
					<path fill="#40B8A8" d="M1437.18,304.89c-10.155-2.032-19.353,9.008-12.744,18.021c2.8,3.819,8.064,5.634,12.622,4.351
						c4.559-1.283,8.104-5.577,8.501-10.296C1445.994,311.794,1442.46,305.948,1437.18,304.89z"/>
				</g>
				<path fill="#40B8A8" d="M1448.444,335.352c-7.858-2.738-15.613,5.234-13.435,13.154c1.619,5.887,8.761,9.563,14.493,7.459
					C1459.839,352.173,1457.957,338.667,1448.444,335.352z"/>
				<path fill="#40B8A8" d="M1379.479,292.795c-7.858-2.739-15.613,5.234-13.435,13.154c1.62,5.887,8.761,9.563,14.493,7.459
					C1390.874,309.617,1388.993,296.11,1379.479,292.795z"/>
			</g>
		</g>
		<g>
			<path fill="#40B8A8" d="M652.438,73.172c0.696-4.858,2.438-9.686,4.957-13.729c13.781-22.129,42.758-21.598,57.843-1.614
				c3.879,5.138,6.833,11.524,7.521,18.458s-1.132,14.405-5.43,19.019c-4.298,4.615-11.146,5.731-15.894,1.828
				c-1.969-1.619-3.873-3.912-5.068-6.143c-1.282-2.396-2.571-4.877-5.228-5.987c-1.138-0.476-2.394-0.621-3.625-0.565
				c-3.931,0.177-7.095,2.129-8.852,5.54c-1.46,2.835-2.989,6.045-6.083,7.385c-2.113,0.916-4.445,0.854-6.641,0.292
				C654.442,94.715,650.904,83.87,652.438,73.172z"/>
			<g>
				<g>
					<path fill="#40B8A8" d="M668.427,16.555c-9.709,3.603-11.737,17.828-1.381,22.029c4.388,1.78,9.821,0.559,13.026-2.926
						c3.206-3.485,3.968-9.001,1.828-13.226C679.554,17.801,673.477,14.681,668.427,16.555z"/>
					<path fill="#40B8A8" d="M699.301,16.555c-9.709,3.603-11.737,17.828-1.381,22.029c4.388,1.78,9.821,0.559,13.026-2.926
						c3.206-3.485,3.968-9.001,1.828-13.226C710.428,17.801,704.351,14.681,699.301,16.555z"/>
				</g>
				<path fill="#40B8A8" d="M724.885,36.563c-8.126,1.796-10.538,12.653-4.525,18.249c4.471,4.16,12.478,3.538,16.251-1.262
					C743.415,44.894,734.722,34.388,724.885,36.563z"/>
				<path fill="#40B8A8" d="M643.846,36.563c-8.125,1.796-10.538,12.653-4.524,18.249c4.47,4.16,12.478,3.538,16.251-1.262
					C662.377,44.894,653.684,34.388,643.846,36.563z"/>
			</g>
		</g>
		<g>
			<path fill="#40B8A8" d="M877.438,341.172c0.696-4.858,2.438-9.686,4.956-13.729c13.782-22.129,42.759-21.598,57.844-1.614
				c3.879,5.138,6.833,11.525,7.521,18.458c0.688,6.934-1.132,14.405-5.43,19.019s-11.146,5.731-15.894,1.828
				c-1.969-1.619-3.873-3.912-5.068-6.143c-1.282-2.396-2.571-4.877-5.228-5.987c-1.138-0.476-2.394-0.621-3.625-0.565
				c-3.931,0.177-7.095,2.129-8.852,5.54c-1.46,2.835-2.989,6.045-6.083,7.385c-2.113,0.916-4.445,0.854-6.641,0.292
				C879.442,362.715,875.904,351.87,877.438,341.172z"/>
			<g>
				<g>
					<path fill="#40B8A8" d="M893.427,284.555c-9.709,3.603-11.737,17.828-1.381,22.029c4.388,1.78,9.821,0.559,13.026-2.926
						c3.206-3.485,3.968-9.001,1.828-13.226C904.554,285.801,898.477,282.681,893.427,284.555z"/>
					<path fill="#40B8A8" d="M924.301,284.555c-9.709,3.603-11.737,17.828-1.381,22.029c4.388,1.78,9.821,0.559,13.026-2.926
						c3.206-3.485,3.968-9.001,1.828-13.226C935.428,285.801,929.351,282.681,924.301,284.555z"/>
				</g>
				<path fill="#40B8A8" d="M949.885,304.563c-8.126,1.796-10.538,12.653-4.525,18.249c4.471,4.16,12.478,3.538,16.251-1.262
					C968.415,312.894,959.722,302.388,949.885,304.563z"/>
				<path fill="#40B8A8" d="M868.846,304.563c-8.125,1.796-10.537,12.653-4.524,18.249c4.47,4.16,12.478,3.538,16.251-1.262
					C887.377,312.894,878.684,302.388,868.846,304.563z"/>
			</g>
		</g>
		<g>
			<path fill="#40B8A8" d="M289.762,943.636c0.053-4.908,1.148-9.922,3.114-14.261c10.761-23.744,39.557-27.017,57.132-9.184
				c4.519,4.585,8.285,10.529,9.875,17.313s0.766,14.429-2.889,19.567c-3.656,5.138-10.298,7.143-15.517,3.896
				c-2.165-1.347-4.353-3.37-5.83-5.426c-1.586-2.207-3.189-4.498-5.967-5.25c-1.19-0.322-2.454-0.302-3.668-0.085
				c-3.874,0.69-6.755,3.041-8.049,6.652c-1.076,3.001-2.171,6.385-5.063,8.118c-1.976,1.185-4.295,1.43-6.545,1.16
				C294.574,964.73,289.645,954.442,289.762,943.636z"/>
			<g>
				<g>
					<path fill="#40B8A8" d="M298.19,885.411c-9.153,4.845-9.299,19.214,1.519,22.021c4.583,1.188,9.81-0.733,12.531-4.609
						s2.753-9.444,0.078-13.352C309.384,885.187,302.95,882.891,298.19,885.411z"/>
					<path fill="#40B8A8" d="M328.797,881.363c-9.153,4.845-9.299,19.214,1.519,22.02c4.583,1.189,9.81-0.732,12.531-4.608
						c2.721-3.876,2.753-9.444,0.078-13.352C339.992,881.139,333.558,878.843,328.797,881.363z"/>
				</g>
				<path fill="#40B8A8" d="M356.783,897.844c-7.82,2.846-8.788,13.925-2.093,18.685c4.977,3.538,12.833,1.871,15.945-3.382
					C376.247,903.673,366.25,894.398,356.783,897.844z"/>
				<path fill="#40B8A8" d="M276.444,908.469c-7.82,2.846-8.788,13.925-2.093,18.685c4.977,3.538,12.833,1.871,15.945-3.383
					C295.908,914.298,285.912,905.023,276.444,908.469z"/>
			</g>
		</g>
		<g>
			<path fill="#40B8A8" d="M352.762,1201.636c0.053-4.908,1.148-9.922,3.114-14.261c10.761-23.744,39.557-27.017,57.132-9.184
				c4.519,4.585,8.285,10.529,9.875,17.313s0.766,14.429-2.889,19.567c-3.656,5.138-10.298,7.143-15.517,3.896
				c-2.165-1.347-4.353-3.37-5.83-5.426c-1.586-2.207-3.189-4.498-5.967-5.25c-1.19-0.322-2.454-0.302-3.668-0.085
				c-3.874,0.69-6.755,3.041-8.049,6.652c-1.076,3.001-2.171,6.385-5.063,8.118c-1.976,1.185-4.295,1.43-6.545,1.16
				C357.574,1222.73,352.645,1212.442,352.762,1201.636z"/>
			<g>
				<g>
					<path fill="#40B8A8" d="M361.19,1143.411c-9.153,4.845-9.299,19.214,1.519,22.021c4.583,1.188,9.81-0.733,12.531-4.609
						c2.721-3.875,2.753-9.444,0.078-13.352C372.384,1143.187,365.95,1140.891,361.19,1143.411z"/>
					<path fill="#40B8A8" d="M391.797,1139.363c-9.153,4.845-9.299,19.214,1.519,22.02c4.583,1.189,9.81-0.732,12.531-4.608
						c2.721-3.876,2.753-9.444,0.078-13.352C402.992,1139.139,396.558,1136.843,391.797,1139.363z"/>
				</g>
				<path fill="#40B8A8" d="M419.783,1155.844c-7.82,2.846-8.788,13.925-2.093,18.685c4.977,3.538,12.833,1.871,15.945-3.382
					C439.247,1161.673,429.25,1152.398,419.783,1155.844z"/>
				<path fill="#40B8A8" d="M339.444,1166.469c-7.82,2.846-8.788,13.925-2.093,18.685c4.977,3.538,12.833,1.871,15.945-3.383
					C358.908,1172.298,348.912,1163.023,339.444,1166.469z"/>
			</g>
		</g>
		<g>
			<path fill="#40B8A8" d="M-180.054,910.284c-0.844-4.835-0.685-9.965,0.456-14.589c6.241-25.312,33.954-33.791,54.492-19.47
				c5.28,3.682,10.069,8.838,12.873,15.217s3.39,14.046,0.735,19.765c-2.655,5.72-8.819,8.905-14.543,6.666
				c-2.375-0.929-4.896-2.518-6.724-4.269c-1.962-1.88-3.958-3.84-6.826-4.071c-1.229-0.1-2.468,0.151-3.622,0.586
				c-3.682,1.387-6.085,4.225-6.698,8.011c-0.509,3.148-0.968,6.675-3.493,8.907c-1.726,1.526-3.962,2.19-6.223,2.337
				C-171.469,930.143-178.195,920.929-180.054,910.284z"/>
			<g>
				<g>
					<path fill="#40B8A8" d="M-182.408,851.499c-8.113,6.436-5.632,20.589,5.517,21.372c4.724,0.331,9.511-2.514,11.478-6.821
						s0.981-9.788-2.363-13.141C-171.442,849.233-178.188,848.152-182.408,851.499z"/>
					<path fill="#40B8A8" d="M-153.055,841.926c-8.114,6.436-5.632,20.589,5.517,21.371c4.724,0.332,9.511-2.514,11.478-6.821
						c1.967-4.307,0.981-9.788-2.363-13.141C-142.09,839.661-148.835,838.58-153.055,841.926z"/>
				</g>
				<path fill="#40B8A8" d="M-122.529,853.015c-7.168,4.228-6.096,15.298,1.356,18.753c5.539,2.569,12.959-0.505,15.059-6.238
					C-102.328,855.191-113.851,847.898-122.529,853.015z"/>
				<path fill="#40B8A8" d="M-199.574,878.142c-7.168,4.228-6.095,15.297,1.357,18.753c5.539,2.568,12.959-0.506,15.058-6.239
					C-179.373,880.317-190.896,873.025-199.574,878.142z"/>
			</g>
		</g>
		<g>
			<path fill="#40B8A8" d="M35.221,1154.06c2.45-4.253,5.859-8.09,9.698-10.909c21.01-15.435,47.72-4.188,54.312,19.967
				c1.695,6.21,2.068,13.237,0.133,19.931s-6.397,12.956-12.1,15.646c-5.703,2.689-12.476,1.186-15.437-4.201
				c-1.228-2.234-2.146-5.069-2.427-7.585c-0.302-2.701-0.578-5.483-2.632-7.5c-0.88-0.863-1.992-1.465-3.156-1.87
				c-3.716-1.294-7.379-0.655-10.275,1.859c-2.408,2.09-5.02,4.504-8.389,4.6c-2.303,0.066-4.445-0.856-6.275-2.192
				C29.087,1174.808,29.827,1163.424,35.221,1154.06z"/>
			<g>
				<g>
					<path fill="#40B8A8" d="M71.079,1107.418c-10.353-0.257-17.516,12.199-9.458,19.943c3.414,3.281,8.913,4.164,13.183,2.117
						s7.025-6.887,6.605-11.604C80.949,1112.705,76.463,1107.552,71.079,1107.418z"/>
					<path fill="#40B8A8" d="M99.748,1118.876c-10.353-0.258-17.516,12.199-9.458,19.942c3.414,3.281,8.913,4.165,13.183,2.118
						c4.27-2.048,7.025-6.887,6.605-11.604C109.618,1124.163,105.132,1119.01,99.748,1118.876z"/>
				</g>
				<path fill="#40B8A8" d="M116.08,1146.95c-8.212-1.348-14.481,7.839-10.974,15.267c2.607,5.521,10.273,7.915,15.559,4.858
					C130.196,1161.562,126.021,1148.581,116.08,1146.95z"/>
				<path fill="#40B8A8" d="M40.828,1116.875c-8.212-1.347-14.481,7.839-10.974,15.268c2.607,5.521,10.273,7.915,15.559,4.858
					C54.944,1131.489,50.77,1118.507,40.828,1116.875z"/>
			</g>
		</g>
		<g>
			<path fill="#40B8A8" d="M1370.243,1067.664c-1.082-4.787-1.177-9.918-0.266-14.594c4.982-25.589,32.242-35.428,53.463-22.139
				c5.456,3.416,10.494,8.329,13.609,14.562c3.114,6.232,4.08,13.861,1.711,19.704c-2.369,5.844-8.368,9.33-14.195,7.377
				c-2.418-0.811-5.015-2.273-6.927-3.932c-2.053-1.78-4.143-3.64-7.02-3.729c-1.232-0.038-2.457,0.273-3.588,0.765
				c-3.609,1.567-5.869,4.521-6.294,8.332c-0.353,3.169-0.637,6.714-3.049,9.069c-1.648,1.609-3.849,2.383-6.1,2.642
				C1379.8,1087.075,1372.626,1078.205,1370.243,1067.664z"/>
			<g>
				<g>
					<path fill="#40B8A8" d="M1364.986,1009.068c-7.785,6.828-4.607,20.842,6.566,21.072c4.734,0.098,9.375-2.98,11.127-7.38
						c1.751-4.399,0.496-9.825-3.011-13.008C1375.826,1006.262,1369.035,1005.516,1364.986,1009.068z"/>
					<path fill="#40B8A8" d="M1393.83,998.055c-7.786,6.829-4.607,20.843,6.566,21.072c4.734,0.098,9.375-2.98,11.126-7.38
						c1.752-4.399,0.496-9.824-3.01-13.008C1404.669,995.25,1397.879,994.504,1393.83,998.055z"/>
				</g>
				<path fill="#40B8A8" d="M1424.867,1007.623c-6.951,4.576-5.332,15.579,2.281,18.662c5.659,2.292,12.918-1.146,14.732-6.976
					C1445.15,1008.796,1433.281,1002.082,1424.867,1007.623z"/>
				<path fill="#40B8A8" d="M1349.158,1036.527c-6.951,4.576-5.332,15.579,2.282,18.662c5.659,2.292,12.918-1.146,14.731-6.976
					C1369.442,1037.701,1357.572,1030.986,1349.158,1036.527z"/>
			</g>
		</g>
		<g>
			<path fill="#40B8A8" d="M1034.243,959.664c-1.082-4.787-1.177-9.918-0.266-14.594c4.982-25.589,32.242-35.428,53.463-22.139
				c5.456,3.416,10.494,8.329,13.609,14.562c3.114,6.232,4.08,13.861,1.711,19.704c-2.369,5.844-8.368,9.33-14.195,7.377
				c-2.418-0.811-5.015-2.273-6.927-3.932c-2.053-1.78-4.143-3.64-7.02-3.729c-1.232-0.038-2.457,0.273-3.588,0.765
				c-3.609,1.567-5.869,4.521-6.294,8.332c-0.353,3.169-0.637,6.714-3.049,9.069c-1.648,1.609-3.849,2.383-6.1,2.642
				C1043.8,979.075,1036.626,970.205,1034.243,959.664z"/>
			<g>
				<g>
					<path fill="#40B8A8" d="M1028.986,901.068c-7.785,6.828-4.607,20.842,6.566,21.072c4.734,0.098,9.375-2.98,11.127-7.38
						c1.751-4.399,0.496-9.825-3.011-13.008C1039.826,898.262,1033.035,897.516,1028.986,901.068z"/>
					<path fill="#40B8A8" d="M1057.83,890.055c-7.786,6.829-4.607,20.843,6.566,21.072c4.734,0.098,9.375-2.98,11.126-7.38
						c1.752-4.399,0.496-9.824-3.01-13.008C1068.669,887.25,1061.879,886.504,1057.83,890.055z"/>
				</g>
				<path fill="#40B8A8" d="M1088.867,899.623c-6.951,4.576-5.332,15.579,2.281,18.662c5.66,2.292,12.918-1.146,14.731-6.976
					C1109.15,900.796,1097.281,894.082,1088.867,899.623z"/>
				<path fill="#40B8A8" d="M1013.158,928.527c-6.95,4.576-5.332,15.579,2.282,18.662c5.659,2.292,12.918-1.146,14.731-6.976
					C1033.441,929.701,1021.573,922.986,1013.158,928.527z"/>
			</g>
		</g>
		<g>
			<path fill="#40B8A8" d="M1101.903,1159.44c3.342-3.595,7.524-6.569,11.897-8.456c23.938-10.328,47.443,6.623,48.449,31.642
				c0.259,6.432-0.953,13.364-4.341,19.453c-3.387,6.089-9.14,11.19-15.302,12.533c-6.16,1.342-12.424-1.644-14.101-7.557
				c-0.695-2.453-0.953-5.422-0.663-7.937c0.312-2.7,0.667-5.474-0.883-7.899c-0.664-1.039-1.613-1.874-2.656-2.53
				c-3.331-2.095-7.044-2.294-10.431-0.493c-2.815,1.497-5.902,3.263-9.208,2.601c-2.259-0.452-4.139-1.832-5.623-3.545
				C1091.272,1178.284,1094.547,1167.356,1101.903,1159.44z"/>
			<g>
				<g>
					<path fill="#40B8A8" d="M1147.311,1122.031c-10.031-2.573-19.807,7.959-13.69,17.313c2.591,3.964,7.751,6.058,12.372,5.021
						c4.62-1.037,8.391-5.135,9.039-9.826C1155.743,1129.396,1152.527,1123.37,1147.311,1122.031z"/>
					<path fill="#40B8A8" d="M1172.679,1139.627c-10.031-2.573-19.806,7.959-13.69,17.313c2.592,3.963,7.752,6.058,12.372,5.021
						s8.391-5.136,9.04-9.826C1181.111,1146.993,1177.896,1140.966,1172.679,1139.627z"/>
				</g>
				<path fill="#40B8A8" d="M1182.297,1170.649c-7.7-3.155-15.87,4.391-14.119,12.416c1.303,5.966,8.236,10.018,14.073,8.225
					C1192.775,1188.056,1191.619,1174.468,1182.297,1170.649z"/>
				<path fill="#40B8A8" d="M1115.709,1124.461c-7.7-3.155-15.87,4.391-14.119,12.416c1.303,5.965,8.236,10.018,14.073,8.225
					C1126.188,1141.869,1125.031,1128.281,1115.709,1124.461z"/>
			</g>
		</g>
		<g>
			<path fill="#40B8A8" d="M650.015,892.62c1.683-4.611,4.382-8.976,7.679-12.414c18.044-18.815,46.289-12.327,56.936,10.336
				c2.736,5.826,4.313,12.685,3.557,19.611c-0.756,6.926-4.075,13.862-9.231,17.492c-5.155,3.631-12.087,3.313-15.929-1.484
				c-1.594-1.99-2.984-4.626-3.694-7.056c-0.762-2.608-1.512-5.303-3.882-6.936c-1.016-0.699-2.215-1.101-3.431-1.3
				c-3.883-0.637-7.382,0.622-9.804,3.597c-2.013,2.474-4.17,5.3-7.474,5.975c-2.257,0.46-4.525-0.081-6.559-1.083
				C647.538,914.113,646.311,902.772,650.015,892.62z"/>
			<g>
				<g>
					<path fill="#40B8A8" d="M677.322,840.509c-10.242,1.525-15.158,15.028-5.889,21.271c3.927,2.646,9.495,2.571,13.351-0.18
						c3.854-2.75,5.736-7.991,4.513-12.565C687.955,844.021,682.65,839.716,677.322,840.509z"/>
					<path fill="#40B8A8" d="M707.535,846.869c-10.243,1.526-15.159,15.028-5.89,21.272c3.927,2.646,9.495,2.57,13.351-0.181
						c3.854-2.75,5.736-7.991,4.513-12.565C718.167,850.38,712.861,846.076,707.535,846.869z"/>
				</g>
				<path fill="#40B8A8" d="M728.448,871.717c-8.321,0.085-12.919,10.212-8.187,16.927c3.517,4.99,11.48,6.031,16.162,2.111
					C744.865,883.687,738.522,871.616,728.448,871.717z"/>
				<path fill="#40B8A8" d="M649.147,855.025c-8.321,0.084-12.918,10.211-8.187,16.926c3.518,4.991,11.48,6.031,16.162,2.112
					C665.565,866.995,659.222,854.923,649.147,855.025z"/>
			</g>
		</g>
		<g>
			<path fill="#40B8A8" d="M819.322,1187.718c-3.021-3.868-5.294-8.469-6.465-13.086c-6.406-25.271,14.054-45.796,38.915-42.826
				c6.392,0.763,13.045,3.058,18.521,7.366c5.475,4.309,9.602,10.798,9.951,17.093c0.35,6.297-3.59,12.008-9.694,12.727
				c-2.531,0.298-5.505,0.083-7.941-0.602c-2.616-0.735-5.299-1.525-7.938-0.379c-1.132,0.49-2.106,1.295-2.92,2.222
				c-2.596,2.957-3.381,6.592-2.139,10.221c1.032,3.017,2.287,6.345,1.11,9.503c-0.805,2.159-2.465,3.797-4.392,4.991
				C836.244,1201.2,825.974,1196.237,819.322,1187.718z"/>
			<g>
				<g>
					<path fill="#40B8A8" d="M789.577,1136.96c-4.13,9.497,4.722,20.816,14.927,16.26c4.323-1.931,7.208-6.694,6.916-11.421
						s-3.741-9.098-8.271-10.481C798.186,1129.8,791.725,1132.021,789.577,1136.96z"/>
					<path fill="#40B8A8" d="M810.969,1114.699c-4.129,9.497,4.723,20.816,14.927,16.26c4.324-1.931,7.209-6.694,6.917-11.421
						c-0.293-4.726-3.742-9.098-8.271-10.481C819.577,1107.539,813.117,1109.759,810.969,1114.699z"/>
				</g>
				<path fill="#40B8A8" d="M843.122,1110.115c-4.335,7.104,1.822,16.366,10.023,15.907c6.097-0.341,11.196-6.545,10.35-12.592
					C861.969,1102.526,848.37,1101.515,843.122,1110.115z"/>
				<path fill="#40B8A8" d="M786.972,1168.547c-4.335,7.104,1.822,16.366,10.023,15.907c6.097-0.341,11.196-6.545,10.35-12.592
					C805.818,1160.958,792.22,1159.948,786.972,1168.547z"/>
			</g>
		</g>
	</g>
	<g id="huesos">
		<g id="hueso_23_">
			
				<path fill="none" stroke="#7DACBC" stroke-width="3.4984" stroke-linecap="round" stroke-linejoin="round" stroke-miterlimit="10" d="
				M224.257,469.409c-5.463,4.76-7.359,12.296-5.172,20.019c2.144,8.304,9.587,11.17,15.314,10.171
				c10.737-0.139,15.608-10.015,21.052-18.603c4.082-7.06,10.381-12.072,17.604-15.663c9.333-4.64,18.807-8.858,28.353-13.096
				c4.185-1.858,8.472-3.509,12.586-5.445c7.732-3.638,16.016-7.046,24.715-6.882c9.091,0.171,17.617,7.318,26.188,1.537
				c12.464-8.408,6.009-26.862-7.915-27.225"/>
			
				<path fill="none" stroke="#7DACBC" stroke-width="3.4984" stroke-linecap="round" stroke-linejoin="round" stroke-miterlimit="10" d="
				M353.656,417.353c3.246-2.891,5.605-7.075,6.189-10.471c1.149-11.309-6.721-18.614-16.742-20.335
				c-11.309-1.15-15.037,11.304-20.48,19.891c-3.015,4.755-7.418,9.978-12.61,12.283c-3.288,1.459-6.576,2.919-9.864,4.379
				c-9.388,4.168-18.775,8.335-28.163,12.503c-6.043,2.683-12.085,5.365-18.128,8.048c-2.549,1.132-4.773,2.248-7.544,2.782
				c-6.496,1.251-12.376,0.077-18.582-1.755c-5.393-1.591-10.84-2.476-15.709,1.038c-12.28,8.861-4.945,27.412,9.374,26.908"/>
		</g>
		<polygon fill="#EFEC7F" points="792.41,232.893 787.984,235.356 782.224,236.271 776.231,235.352 771.957,232.007 
			768.938,227.968 767.674,223.562 767.985,218.431 770.19,213.249 775.316,208.551 782.441,204.89 788.057,201.183 792.09,196.877 
			795.972,191.086 799.265,184.514 817.508,141.066 820.396,132.633 821.756,124.098 821.114,115.207 819.443,106.639 
			818.706,100.475 819.448,93.215 823.64,86.393 828.524,82.111 836.152,80.753 843.178,84.624 848.189,89.164 850.699,93.833 
			851.559,97.239 855.814,94.229 860.827,92.898 866.432,93.639 872.772,97.16 877.001,103.888 876.274,113.599 869.265,120.197 
			861.726,124.283 854.985,129.152 850.197,135.166 846.101,144.68 825.51,193.066 822.054,202.854 822.178,211.562 824.252,221.38 
			826.059,230.068 825.526,237.377 820.564,243.652 814.53,246.307 807.627,246.975 802.034,245.805 796.747,241.627 
			793.535,236.33 		"/>
		<g id="hueso_17_">
			
				<path fill="none" stroke="#7DACBC" stroke-width="3.4984" stroke-linecap="round" stroke-linejoin="round" stroke-miterlimit="10" d="
				M1196.488,166.509c-7.232,0.437-13.333,5.249-16.314,12.702c-3.369,7.887,0.777,14.7,5.924,17.403
				c8.591,6.443,18.477,1.593,28.03-1.888c7.542-3.102,15.592-3.228,23.505-1.664c10.225,2.02,20.304,4.461,30.452,6.93
				c4.449,1.083,8.854,2.39,13.294,3.368c8.346,1.837,16.987,4.193,23.778,9.632c7.098,5.685,9.489,16.549,19.807,17.2
				c15.005,0.947,21.154-17.611,10.346-26.397"/>
			
				<path fill="none" stroke="#7DACBC" stroke-width="3.4984" stroke-linecap="round" stroke-linejoin="round" stroke-miterlimit="10" d="
				M1330.765,204.245c4.335-0.31,8.759-2.184,11.293-4.518c7.813-8.257,6.036-18.847-0.851-26.327
				c-8.258-7.813-18.811-0.223-28.363,3.258c-5.291,1.928-11.967,3.377-17.485,2.035c-3.496-0.851-6.991-1.701-10.487-2.551
				c-9.98-2.428-19.96-4.855-29.94-7.283c-6.424-1.563-12.849-3.125-19.272-4.688c-2.71-0.659-5.153-1.132-7.674-2.4
				c-5.909-2.974-9.852-7.492-13.649-12.731c-3.301-4.552-7.076-8.577-13.077-8.765c-15.137-0.476-20.646,18.696-8.996,27.036"/>
		</g>
		<polygon fill="#7DACBC" points="357.401,413.898 362.319,415.115 367.155,418.376 370.91,423.135 371.753,428.497 
			371.207,433.509 369.125,437.594 365.398,441.134 360.25,443.419 353.298,443.357 345.59,441.175 338.956,440.055 
			333.069,440.453 326.28,442.04 319.39,444.599 276.413,463.926 268.549,468.123 261.733,473.437 256.137,480.376 251.515,487.781 
			247.849,492.791 242.355,497.594 234.637,499.724 228.143,499.523 221.64,495.313 219.142,487.69 218.574,480.951 
			219.924,475.826 221.619,472.749 216.454,472.047 211.88,469.601 208.287,465.237 206.052,458.336 207.549,450.533 
			214.704,443.927 224.331,443.883 232.631,446.038 240.881,447.075 248.484,445.944 257.969,441.781 306.031,420.443 
			315.235,415.644 321.084,409.191 326.265,400.597 330.869,393.011 336.245,388.029 344.153,386.826 350.376,389.001 
			355.88,393.221 359.171,397.891 360.188,404.552 358.923,410.617 		"/>
		<g>
			<g id="hueso_19_">
				
					<path fill="none" stroke="#7DACBC" stroke-width="3.4984" stroke-linecap="round" stroke-linejoin="round" stroke-miterlimit="10" d="
					M224.257,186.409c-5.463,4.76-7.359,12.296-5.172,20.019c2.144,8.304,9.587,11.17,15.314,10.171
					c10.737-0.139,15.608-10.015,21.052-18.603c4.082-7.06,10.381-12.072,17.604-15.663c9.333-4.64,18.807-8.858,28.353-13.096
					c4.185-1.858,8.472-3.509,12.586-5.445c7.732-3.638,16.016-7.046,24.715-6.882c9.091,0.171,17.617,7.318,26.188,1.537
					c12.464-8.408,6.009-26.862-7.915-27.225"/>
				
					<path fill="none" stroke="#7DACBC" stroke-width="3.4984" stroke-linecap="round" stroke-linejoin="round" stroke-miterlimit="10" d="
					M353.656,134.353c3.246-2.891,5.605-7.075,6.189-10.471c1.149-11.309-6.721-18.614-16.742-20.335
					c-11.309-1.15-15.037,11.304-20.48,19.891c-3.015,4.755-7.418,9.978-12.61,12.283c-3.288,1.459-6.576,2.919-9.864,4.379
					c-9.388,4.168-18.775,8.335-28.163,12.503c-6.043,2.683-12.085,5.365-18.128,8.048c-2.549,1.132-4.773,2.248-7.544,2.782
					c-6.496,1.251-12.376,0.077-18.582-1.755c-5.393-1.591-10.84-2.476-15.709,1.038c-12.28,8.861-4.945,27.412,9.374,26.908"/>
			</g>
			<polygon fill="#7DACBC" points="357.401,130.898 362.319,132.115 367.155,135.376 370.91,140.135 371.753,145.497 
				371.207,150.509 369.125,154.594 365.398,158.134 360.25,160.419 353.298,160.357 345.59,158.175 338.956,157.055 
				333.069,157.453 326.28,159.04 319.39,161.599 276.413,180.926 268.549,185.123 261.733,190.437 256.137,197.376 
				251.515,204.781 247.849,209.791 242.355,214.594 234.637,216.724 228.143,216.523 221.64,212.313 219.142,204.69 
				218.574,197.951 219.924,192.826 221.619,189.749 216.454,189.047 211.88,186.601 208.287,182.237 206.052,175.336 
				207.549,167.533 214.704,160.927 224.331,160.883 232.631,163.038 240.881,164.075 248.484,162.944 257.969,158.781 
				306.031,137.443 315.235,132.644 321.084,126.191 326.265,117.597 330.869,110.011 336.245,105.029 344.153,103.826 
				350.376,106.001 355.88,110.221 359.171,114.891 360.188,121.552 358.923,127.617 			"/>
		</g>
		<g>
			<g id="hueso_1_">
				
					<path fill="none" stroke="#7DACBC" stroke-width="3.4984" stroke-linecap="round" stroke-linejoin="round" stroke-miterlimit="10" d="
					M-33.886,122.91c-6.455-3.292-14.154-2.239-20.503,2.671c-6.904,5.088-6.786,13.063-3.721,18.003
					c4.135,9.91,15.116,10.744,25.114,12.59c8.073,1.152,15.074,5.126,21.101,10.488c7.788,6.927,15.236,14.143,22.73,21.417
					c3.286,3.189,6.417,6.55,9.749,9.645c6.261,5.816,12.514,12.23,15.608,20.362c3.233,8.499-0.216,19.075,8.346,24.87
					c12.452,8.426,27.164-4.449,22.305-17.502"/>
				
					<path fill="none" stroke="#7DACBC" stroke-width="3.4984" stroke-linecap="round" stroke-linejoin="round" stroke-miterlimit="10" d="
					M62.697,223.537c3.893,1.932,8.656,2.56,12.024,1.834c10.921-3.153,14.761-13.181,12.62-23.121
					c-3.153-10.921-16.098-9.732-26.097-11.578c-5.537-1.022-12.026-3.159-16.102-7.115c-2.581-2.506-5.163-5.012-7.744-7.518
					c-7.37-7.154-14.74-14.309-22.109-21.463c-4.744-4.605-9.488-9.21-14.231-13.815c-2.001-1.943-3.867-3.589-5.396-5.961
					c-3.584-5.56-4.689-11.453-5.306-17.895c-0.536-5.598-1.748-10.981-6.824-14.187c-12.804-8.087-27.277,5.641-21.466,18.737"/>
			</g>
			<polygon fill="#7DACBC" points="67.299,225.722 68.005,230.739 66.785,236.442 63.77,241.702 59.111,244.485 54.256,245.848 
				49.69,245.441 45.015,243.304 40.974,239.381 38.437,232.908 37.585,224.943 36.148,218.37 33.583,213.056 29.578,207.35 
				24.632,201.912 -9.336,169.252 -16.165,163.522 -23.638,159.181 -32.165,156.579 -40.76,155.054 -46.775,153.522 
				-53.282,150.217 -58.138,143.851 -60.375,137.752 -58.895,130.147 -52.755,124.985 -46.715,121.944 -41.456,121.283 
				-37.969,121.708 -39.245,116.654 -38.682,111.498 -35.974,106.536 -30.406,101.888 -22.607,100.365 -13.809,104.538 
				-10.176,113.453 -9.078,121.958 -6.961,129.999 -3.075,136.63 4.327,143.877 42.058,180.505 49.946,187.253 58.114,190.271 
				68.021,191.871 76.777,193.312 83.405,196.44 87.473,203.329 87.777,209.914 85.915,216.594 82.811,221.391 77.01,224.82 
				70.911,225.91 			"/>
		</g>
		<g>
			<g id="hueso_2_">
				
					<path fill="none" stroke="#7DACBC" stroke-width="3.4984" stroke-linecap="round" stroke-linejoin="round" stroke-miterlimit="10" d="
					M-37.886,539.91c-6.455-3.292-14.154-2.239-20.503,2.671c-6.904,5.088-6.786,13.063-3.721,18.003
					c4.135,9.91,15.116,10.744,25.114,12.59c8.073,1.152,15.074,5.126,21.101,10.488c7.788,6.927,15.236,14.143,22.73,21.417
					c3.286,3.189,6.417,6.55,9.749,9.646c6.261,5.816,12.514,12.229,15.608,20.361c3.233,8.499-0.216,19.075,8.346,24.869
					c12.452,8.427,27.164-4.448,22.305-17.502"/>
				
					<path fill="none" stroke="#7DACBC" stroke-width="3.4984" stroke-linecap="round" stroke-linejoin="round" stroke-miterlimit="10" d="
					M58.697,640.537c3.893,1.932,8.656,2.56,12.024,1.834c10.921-3.153,14.761-13.182,12.62-23.12
					c-3.153-10.922-16.098-9.732-26.097-11.578c-5.537-1.022-12.026-3.159-16.102-7.116c-2.581-2.506-5.163-5.012-7.744-7.518
					c-7.37-7.154-14.74-14.309-22.109-21.463c-4.744-4.605-9.488-9.21-14.231-13.815c-2.001-1.943-3.867-3.589-5.396-5.961
					c-3.584-5.56-4.689-11.453-5.306-17.895c-0.536-5.598-1.748-10.981-6.824-14.187c-12.804-8.087-27.277,5.641-21.466,18.737"/>
			</g>
			<polygon fill="#7DACBC" points="63.299,642.722 64.005,647.739 62.785,653.442 59.77,658.702 55.111,661.485 50.256,662.848 
				45.69,662.441 41.015,660.304 36.974,656.381 34.437,649.908 33.585,641.943 32.148,635.37 29.583,630.056 25.578,624.35 
				20.632,618.913 -13.336,586.252 -20.165,580.522 -27.638,576.181 -36.165,573.579 -44.76,572.054 -50.775,570.522 
				-57.282,567.217 -62.138,560.851 -64.375,554.752 -62.895,547.147 -56.755,541.985 -50.715,538.944 -45.456,538.283 
				-41.969,538.708 -43.245,533.654 -42.682,528.498 -39.974,523.536 -34.406,518.888 -26.607,517.365 -17.809,521.538 
				-14.176,530.453 -13.078,538.958 -10.961,546.999 -7.075,553.63 0.327,560.877 38.058,597.505 45.946,604.253 54.114,607.271 
				64.021,608.871 72.777,610.312 79.405,613.44 83.473,620.329 83.777,626.914 81.915,633.594 78.811,638.391 73.01,641.82 
				66.911,642.91 			"/>
		</g>
		<g>
			<g id="hueso_3_">
				
					<path fill="none" stroke="#7DACBC" stroke-width="3.4984" stroke-linecap="round" stroke-linejoin="round" stroke-miterlimit="10" d="
					M359.724,759.039c5.721-4.446,8.036-11.864,6.286-19.697c-1.675-8.411-8.946-11.69-14.72-11.014
					c-10.729-0.463-16.146,9.125-22.062,17.394c-4.471,6.82-11.042,11.472-18.455,14.651c-9.578,4.11-19.273,7.79-29.042,11.486
					c-4.283,1.62-8.655,3.029-12.872,4.731c-7.924,3.198-16.386,6.138-25.062,5.485c-9.068-0.681-17.179-8.294-26.06-3.002
					c-12.916,7.696-7.506,26.482,6.376,27.625"/>
				
					<path fill="none" stroke="#7DACBC" stroke-width="3.4984" stroke-linecap="round" stroke-linejoin="round" stroke-miterlimit="10" d="
					M227.61,803.76c-3.402,2.704-5.993,6.75-6.766,10.107c-1.782,11.227,5.667,18.961,15.575,21.242
					c11.227,1.782,15.646-10.443,21.563-18.712c3.276-4.579,7.966-9.547,13.279-11.557c3.364-1.273,6.729-2.547,10.094-3.82
					c9.606-3.635,19.213-7.27,28.819-10.904c6.184-2.34,12.368-4.68,18.551-7.02c2.608-0.987,4.891-1.978,7.688-2.354
					c6.556-0.885,12.361,0.616,18.455,2.793c5.295,1.892,10.684,3.08,15.742-0.155c12.758-8.158,6.474-27.091-7.851-27.391"/>
			</g>
			<polygon fill="#7DACBC" points="223.677,807 218.835,805.508 214.189,801.981 210.708,797.019 210.166,791.619 210.993,786.644 
				213.3,782.683 217.22,779.358 222.487,777.365 229.426,777.816 236.999,780.426 243.56,781.917 249.459,781.85 256.327,780.646 
				263.35,778.477 307.342,761.589 315.429,757.839 322.532,752.917 328.509,746.301 333.539,739.167 337.479,734.371 
				343.234,729.883 351.06,728.19 357.532,728.754 363.789,733.322 365.856,741.073 366.045,747.833 364.41,752.875 
				362.545,755.852 367.663,756.842 372.092,759.542 375.435,764.099 377.279,771.115 375.347,778.822 367.833,785.016 
				358.219,784.52 350.053,781.904 341.874,780.406 334.219,781.109 324.516,784.734 275.333,803.344 265.875,807.62 
				259.674,813.734 254.02,822.024 248.997,829.34 243.351,834.013 235.387,834.772 229.296,832.25 224.037,827.729 
				221.013,822.881 220.371,816.174 221.974,810.189 			"/>
		</g>
		<g>
			<g id="hueso_5_">
				
					<path fill="none" stroke="#7DACBC" stroke-width="3.4984" stroke-linecap="round" stroke-linejoin="round" stroke-miterlimit="10" d="
					M-44.916,955.36c-6.768-2.589-14.312-0.725-20.104,4.832c-6.325,5.792-5.361,13.71-1.79,18.297
					c5.164,9.414,16.171,9.078,26.309,9.853c8.15,0.289,15.533,3.498,22.095,8.189c8.479,6.061,16.651,12.445,24.875,18.884
					c3.605,2.822,7.076,5.832,10.717,8.556c6.843,5.119,13.741,10.832,17.681,18.59c4.117,8.108,1.81,18.991,10.938,23.844
					c13.276,7.057,26.539-7.307,20.321-19.771"/>
				
					<path fill="none" stroke="#7DACBC" stroke-width="3.4984" stroke-linecap="round" stroke-linejoin="round" stroke-miterlimit="10" d="
					M61.802,1045.167c4.076,1.508,8.878,1.627,12.151,0.548c10.525-4.295,13.279-14.674,10.094-24.33
					c-4.295-10.524-17.04-7.969-27.178-8.742c-5.614-0.429-12.293-1.865-16.766-5.366c-2.833-2.218-5.666-4.436-8.498-6.653
					c-8.087-6.332-16.175-12.663-24.263-18.995c-5.206-4.075-10.412-8.151-15.618-12.227c-2.196-1.72-4.226-3.159-5.998-5.355
					c-4.154-5.147-5.879-10.891-7.176-17.23c-1.126-5.509-2.904-10.733-8.292-13.382c-13.59-6.683-26.524,8.504-19.356,20.91"/>
			</g>
			<polygon fill="#7DACBC" points="66.61,1046.851 67.844,1051.764 67.236,1057.565 64.797,1063.115 60.459,1066.377 
				55.777,1068.248 51.193,1068.328 46.317,1066.699 41.883,1063.227 38.673,1057.06 36.981,1049.23 34.854,1042.846 
				31.74,1037.835 27.151,1032.586 21.656,1027.705 -15.587,998.834 -22.984,993.862 -30.876,990.338 -39.631,988.656 
				-48.339,988.051 -54.483,987.167 -61.304,984.572 -66.808,978.756 -69.68,972.929 -69.016,965.21 -63.458,959.426 
				-57.775,955.76 -52.616,954.545 -49.104,954.597 -50.909,949.708 -50.896,944.521 -48.73,939.299 -43.688,934.086 
				-36.094,931.745 -26.903,934.96 -22.344,943.439 -20.35,951.78 -17.391,959.55 -12.823,965.732 -4.694,972.152 36.712,1004.569 
				45.271,1010.441 53.714,1012.576 63.734,1013.115 72.594,1013.619 79.517,1016.025 84.292,1022.443 85.294,1028.958 
				84.152,1035.799 81.574,1040.898 76.17,1044.923 70.221,1046.655 			"/>
		</g>
		<g>
			<g id="hueso_4_">
				
					<path fill="none" stroke="#7DACBC" stroke-width="3.4984" stroke-linecap="round" stroke-linejoin="round" stroke-miterlimit="10" d="
					M514.903,624.726c-4.098-5.976-11.365-8.728-19.289-7.446c-8.496,1.172-12.202,8.234-11.869,14.039
					c-1.101,10.681,8.147,16.659,16.05,23.057c6.542,4.868,10.794,11.704,13.528,19.293c3.533,9.806,6.63,19.703,9.739,29.674
					c1.363,4.371,2.509,8.82,3.958,13.13c2.722,8.101,5.152,16.723,3.985,25.345c-1.219,9.011-9.301,16.655-4.547,25.835
					c6.915,13.351,25.989,9.067,27.956-4.722"/>
				
					<path fill="none" stroke="#7DACBC" stroke-width="3.4984" stroke-linecap="round" stroke-linejoin="round" stroke-miterlimit="10" d="
					M551.689,759.265c2.497,3.558,6.381,6.384,9.688,7.355c11.101,2.446,19.264-4.529,22.13-14.285
					c2.447-11.101-9.494-16.239-17.396-22.637c-4.376-3.543-9.056-8.52-10.747-13.942c-1.071-3.435-2.142-6.869-3.212-10.304
					c-3.057-9.806-6.114-19.611-9.171-29.417c-1.968-6.312-3.936-12.623-5.904-18.936c-0.831-2.662-1.683-5-1.894-7.814
					c-0.493-6.597,1.351-12.302,3.886-18.256c2.203-5.174,3.709-10.482,0.781-15.724c-7.386-13.221-26.658-8.073-27.809,6.208"/>
			</g>
			<polygon fill="#7DACBC" points="554.688,763.383 552.912,768.128 549.115,772.556 543.955,775.737 538.532,775.957 
				533.615,774.835 529.798,772.296 526.712,768.186 525.036,762.809 525.898,755.91 528.955,748.505 530.833,742.044 
				531.117,736.151 530.324,729.225 528.576,722.085 514.334,677.167 511.073,668.871 506.581,661.487 500.333,655.128 
				493.51,649.682 488.957,645.463 484.819,639.452 483.594,631.54 484.542,625.113 489.475,619.138 497.334,617.536 
				504.094,617.75 509.03,619.681 511.891,621.72 513.184,616.67 516.141,612.409 520.89,609.343 528.002,607.919 535.581,610.306 
				541.317,618.175 540.251,627.744 537.153,635.74 535.172,643.815 535.418,651.498 538.459,661.4 554.112,711.602 
				557.818,721.298 563.552,727.851 571.491,733.989 578.496,739.438 582.824,745.352 583.108,753.346 580.229,759.277 
				575.403,764.257 570.384,766.988 563.65,767.23 557.771,765.274 			"/>
		</g>
		<g>
			<g id="hueso_6_">
				
					<path fill="none" stroke="#7DACBC" stroke-width="3.4984" stroke-linecap="round" stroke-linejoin="round" stroke-miterlimit="10" d="
					M493.903,981.726c-4.098-5.976-11.365-8.728-19.289-7.446c-8.496,1.172-12.202,8.234-11.869,14.039
					c-1.101,10.681,8.147,16.659,16.05,23.057c6.542,4.868,10.794,11.704,13.528,19.293c3.533,9.806,6.63,19.703,9.739,29.674
					c1.363,4.371,2.509,8.82,3.958,13.13c2.722,8.101,5.152,16.723,3.985,25.345c-1.219,9.011-9.301,16.655-4.547,25.835
					c6.915,13.351,25.989,9.067,27.956-4.722"/>
				
					<path fill="none" stroke="#7DACBC" stroke-width="3.4984" stroke-linecap="round" stroke-linejoin="round" stroke-miterlimit="10" d="
					M530.689,1116.265c2.497,3.558,6.381,6.384,9.688,7.355c11.101,2.446,19.264-4.529,22.13-14.285
					c2.447-11.101-9.494-16.239-17.396-22.637c-4.376-3.543-9.056-8.52-10.747-13.942c-1.071-3.435-2.142-6.869-3.212-10.304
					c-3.057-9.806-6.114-19.611-9.171-29.417c-1.968-6.312-3.936-12.623-5.904-18.936c-0.831-2.662-1.683-5-1.894-7.814
					c-0.493-6.597,1.351-12.302,3.886-18.256c2.203-5.173,3.709-10.482,0.781-15.724c-7.386-13.221-26.658-8.073-27.809,6.208"/>
			</g>
			<polygon fill="#7DACBC" points="533.688,1120.383 531.912,1125.128 528.115,1129.556 522.955,1132.737 517.532,1132.957 
				512.615,1131.835 508.798,1129.296 505.712,1125.186 504.036,1119.809 504.898,1112.91 507.955,1105.505 509.833,1099.044 
				510.117,1093.151 509.324,1086.225 507.576,1079.085 493.334,1034.167 490.073,1025.871 485.581,1018.487 479.333,1012.128 
				472.51,1006.682 467.957,1002.463 463.819,996.452 462.594,988.54 463.542,982.113 468.475,976.138 476.334,974.536 
				483.094,974.75 488.03,976.681 490.891,978.72 492.184,973.67 495.141,969.409 499.89,966.343 507.002,964.919 514.581,967.306 
				520.317,975.175 519.251,984.744 516.153,992.74 514.172,1000.815 514.418,1008.498 517.459,1018.4 533.112,1068.602 
				536.818,1078.298 542.552,1084.851 550.491,1090.989 557.496,1096.438 561.824,1102.352 562.108,1110.346 559.229,1116.277 
				554.403,1121.257 549.384,1123.988 542.65,1124.23 536.771,1122.274 			"/>
		</g>
		<g>
			<g id="hueso_7_">
				
					<path fill="none" stroke="#7DACBC" stroke-width="3.4984" stroke-linecap="round" stroke-linejoin="round" stroke-miterlimit="10" d="
					M796.654,949.679c-6.734-2.674-14.301-0.905-20.163,4.577c-6.398,5.711-5.535,13.64-2.021,18.272
					c5.043,9.479,16.054,9.283,26.181,10.187c8.146,0.393,15.487,3.695,21.989,8.47c8.401,6.168,16.491,12.656,24.633,19.198
					c3.569,2.868,7.002,5.922,10.607,8.691c6.777,5.206,13.603,11.007,17.442,18.813c4.014,8.16,1.568,19.013,10.635,23.98
					c13.186,7.226,26.629-6.968,20.571-19.51"/>
				
					<path fill="none" stroke="#7DACBC" stroke-width="3.4984" stroke-linecap="round" stroke-linejoin="round" stroke-miterlimit="10" d="
					M902.222,1040.837c4.057,1.56,8.857,1.739,12.143,0.701c10.579-4.16,13.464-14.503,10.403-24.198
					c-4.161-10.579-16.938-8.185-27.064-9.088c-5.609-0.501-12.269-2.021-16.696-5.579c-2.805-2.254-5.608-4.507-8.413-6.761
					c-8.006-6.435-16.013-12.868-24.019-19.302c-5.153-4.142-10.308-8.283-15.461-12.425c-2.174-1.747-4.186-3.212-5.93-5.432
					c-4.089-5.2-5.74-10.964-6.956-17.319c-1.057-5.523-2.768-10.77-8.121-13.487c-13.503-6.854-26.629,8.167-19.62,20.662"/>
			</g>
			<polygon fill="#7DACBC" points="907.008,1042.583 908.18,1047.511 907.498,1053.304 904.988,1058.823 900.609,1062.029 
				895.903,1063.84 891.319,1063.861 886.465,1062.171 882.075,1058.643 878.943,1052.435 877.351,1044.584 875.307,1038.174 
				872.256,1033.125 867.734,1027.818 862.302,1022.866 825.429,993.524 818.095,988.458 810.248,984.834 801.516,983.041 
				792.816,982.326 786.684,981.364 779.896,978.681 774.467,972.796 771.67,966.933 772.432,959.224 778.063,953.51 
				783.791,949.917 788.966,948.768 792.478,948.865 790.734,943.953 790.813,938.766 793.045,933.573 798.154,928.424 
				805.776,926.179 814.926,929.511 819.377,938.048 821.265,946.413 824.124,954.22 828.613,960.46 836.66,966.983 877.65,999.923 
				886.134,1005.905 894.549,1008.146 904.562,1008.812 913.414,1009.429 920.306,1011.923 925,1018.401 925.918,1024.929 
				924.688,1031.754 922.047,1036.821 916.592,1040.777 910.621,1042.432 			"/>
		</g>
		<g>
			<g id="hueso_8_">
				
					<path fill="none" stroke="#7DACBC" stroke-width="3.4984" stroke-linecap="round" stroke-linejoin="round" stroke-miterlimit="10" d="
					M1215.037,937.295c-3.543-6.32-10.531-9.717-18.539-9.155c-8.566,0.401-12.895,7.102-13.086,12.912
					c-2.059,10.538,6.612,17.326,13.905,24.41c6.077,5.438,9.695,12.63,11.734,20.435c2.634,10.084,4.825,20.221,7.022,30.431
					c0.963,4.477,1.704,9.011,2.758,13.434c1.98,8.313,3.623,17.118,1.684,25.601c-2.026,8.864-10.766,15.748-6.858,25.319
					c5.683,13.92,25.066,11.374,28.269-2.182"/>
				
					<path fill="none" stroke="#7DACBC" stroke-width="3.4984" stroke-linecap="round" stroke-linejoin="round" stroke-miterlimit="10" d="
					M1239.541,1074.604c2.166,3.769,5.779,6.934,8.984,8.199c10.836,3.438,19.595-2.774,23.329-12.231
					c3.438-10.835-7.991-17.029-15.284-24.113c-4.039-3.924-8.251-9.302-9.446-14.854c-0.757-3.518-1.514-7.034-2.271-10.552
					c-2.16-10.041-4.32-20.082-6.481-30.124c-1.391-6.464-2.781-12.927-4.172-19.391c-0.587-2.727-1.225-5.132-1.181-7.954
					c0.104-6.614,2.455-12.13,5.517-17.83c2.66-4.954,4.639-10.105,2.195-15.59c-6.163-13.832-25.821-10.443-28.255,3.676"/>
			</g>
			<polygon fill="#7DACBC" points="1242.157,1078.976 1239.96,1083.542 1235.779,1087.609 1230.353,1090.311 1224.933,1090.041 
				1220.137,1088.481 1216.564,1085.608 1213.861,1081.236 1212.677,1075.73 1214.158,1068.937 1217.87,1061.838 1220.323,1055.573 
				1221.137,1049.729 1220.972,1042.759 1219.875,1035.491 1209.742,989.471 1207.241,980.916 1203.434,973.157 1197.784,966.26 
				1191.48,960.221 1187.326,955.61 1183.748,949.25 1183.241,941.258 1184.765,934.943 1190.216,929.438 1198.188,928.551 
				1204.9,929.373 1209.643,931.742 1212.308,934.03 1214.051,929.118 1217.38,925.141 1222.387,922.516 1229.598,921.739 
				1236.931,924.799 1241.935,933.154 1240.01,942.586 1236.203,950.271 1233.502,958.134 1233.055,965.808 1235.19,975.944 
				1246.252,1027.353 1249.068,1037.344 1254.188,1044.388 1261.542,1051.216 1268.026,1057.275 1271.805,1063.555 
				1271.366,1071.542 1267.964,1077.189 1262.708,1081.714 1257.464,1083.982 1250.735,1083.615 1245.057,1081.137 			"/>
		</g>
		<g>
			<g id="hueso_9_">
				
					<path fill="none" stroke="#7DACBC" stroke-width="3.4984" stroke-linecap="round" stroke-linejoin="round" stroke-miterlimit="10" d="
					M1352.147,624.25c-4.516-5.667-11.96-7.893-19.771-6.048c-8.391,1.777-11.582,9.087-10.835,14.852
					c-0.334,10.733,9.319,16.034,17.658,21.851c6.874,4.388,11.604,10.902,14.874,18.276c4.226,9.527,8.022,19.178,11.836,28.901
					c1.673,4.262,3.134,8.617,4.887,12.813c3.294,7.886,6.335,16.311,5.788,24.994c-0.571,9.075-8.086,17.278-2.688,26.095
					c7.852,12.821,26.571,7.185,27.547-6.71"/>
				
					<path fill="none" stroke="#7DACBC" stroke-width="3.4984" stroke-linecap="round" stroke-linejoin="round" stroke-miterlimit="10" d="
					M1398.462,755.813c2.745,3.369,6.822,5.911,10.188,6.644c11.248,1.646,18.892-5.896,21.053-15.831
					c1.646-11.248-10.631-15.519-18.971-21.335c-4.619-3.221-9.643-7.85-11.717-13.138c-1.313-3.35-2.628-6.698-3.941-10.048
					c-3.751-9.562-7.502-19.123-11.252-28.686c-2.415-6.154-4.829-12.31-7.243-18.465c-1.019-2.596-2.036-4.867-2.447-7.659
					c-0.964-6.544,0.468-12.367,2.57-18.486c1.827-5.318,2.95-10.721-0.346-15.74c-8.313-12.658-27.167-6.146-27.294,8.182"/>
			</g>
			<polygon fill="#7DACBC" points="1401.748,759.707 1400.315,764.566 1396.846,769.253 1391.926,772.795 1386.532,773.403 
				1381.549,772.636 1377.56,770.376 1374.188,766.498 1372.131,761.254 1372.498,754.311 1375.017,746.707 1376.428,740.128 
				1376.289,734.23 1375.003,727.377 1372.749,720.381 1355.331,676.596 1351.484,668.555 1346.476,661.512 1339.788,655.616 
				1332.594,650.672 1327.75,646.791 1323.193,641.089 1321.405,633.285 1321.892,626.807 1326.384,620.495 1334.109,618.334 
				1340.866,618.064 1345.928,619.638 1348.928,621.466 1349.855,616.337 1352.501,611.875 1357.019,608.478 1364.011,606.549 
				1371.74,608.388 1378.025,615.827 1377.646,625.446 1375.128,633.643 1373.729,641.839 1374.524,649.486 1378.267,659.144 
				1397.47,708.098 1401.859,717.504 1408.048,723.631 1416.406,729.185 1423.782,734.119 1428.522,739.708 1429.377,747.662 
				1426.931,753.783 1422.472,759.096 1417.662,762.179 1410.963,762.902 1404.959,761.372 			"/>
		</g>
		<g>
			<g id="hueso_10_">
				
					<path fill="none" stroke="#7DACBC" stroke-width="3.4984" stroke-linecap="round" stroke-linejoin="round" stroke-miterlimit="10" d="
					M799.088,535.589c-6.825-2.435-14.324-0.399-19.988,5.287c-6.192,5.934-5.049,13.828-1.375,18.333
					c5.377,9.295,16.373,8.709,26.525,9.254c8.155,0.104,15.609,3.145,22.275,7.686c8.614,5.868,16.93,12.065,25.297,18.315
					c3.668,2.74,7.207,5.67,10.908,8.311c6.957,4.963,13.983,10.518,18.098,18.185c4.3,8.013,2.24,18.944,11.477,23.589
					c13.433,6.754,26.365-7.906,19.868-20.227"/>
				
					<path fill="none" stroke="#7DACBC" stroke-width="3.4984" stroke-linecap="round" stroke-linejoin="round" stroke-miterlimit="10" d="
					M907.814,622.953c4.109,1.416,8.913,1.426,12.16,0.272c10.425-4.532,12.942-14.971,9.54-24.552
					c-4.532-10.425-17.217-7.581-27.369-8.125c-5.623-0.301-12.332-1.585-16.883-4.984c-2.883-2.153-5.765-4.306-8.647-6.459
					c-8.229-6.146-16.457-12.293-24.687-18.44c-5.297-3.957-10.594-7.913-15.891-11.87c-2.235-1.669-4.297-3.062-6.118-5.218
					c-4.271-5.052-6.125-10.754-7.564-17.063c-1.252-5.482-3.146-10.665-8.594-13.191c-13.737-6.373-26.323,9.104-18.876,21.344"/>
			</g>
			<polygon fill="#7DACBC" points="912.66,624.528 914.005,629.413 913.529,635.225 911.216,640.83 906.953,644.189 
				902.314,646.166 897.733,646.349 892.822,644.832 888.311,641.46 884.961,635.368 883.092,627.579 880.822,621.245 
				877.594,616.305 872.888,611.162 867.283,606.406 829.396,578.387 821.887,573.583 813.917,570.24 805.126,568.757 
				796.406,568.35 790.244,567.605 783.366,565.165 777.731,559.477 774.729,553.715 775.218,545.984 780.643,540.075 
				786.241,536.281 791.371,534.95 794.885,534.922 792.969,530.074 792.863,524.889 794.91,519.62 799.834,514.293 807.372,511.78 
				816.634,514.787 821.384,523.16 823.567,531.453 826.701,539.154 831.408,545.231 839.681,551.465 881.811,582.934 
				890.501,588.612 898.99,590.554 909.02,590.866 917.889,591.168 924.864,593.417 929.784,599.725 930.934,606.216 
				929.946,613.082 927.485,618.238 922.174,622.384 916.266,624.25 			"/>
		</g>
		<g>
			<g id="hueso_11_">
				
					<path fill="none" stroke="#7DACBC" stroke-width="3.4984" stroke-linecap="round" stroke-linejoin="round" stroke-miterlimit="10" d="
					M1192.282,337.941c5.278-4.965,6.886-12.567,4.406-20.201c-2.458-8.217-10.005-10.797-15.689-9.58
					c-10.725,0.547-15.216,10.602-20.329,19.39c-3.81,7.21-9.914,12.458-16.995,16.322c-9.149,4.992-18.456,9.567-27.834,14.166
					c-4.11,2.016-8.331,3.83-12.369,5.92c-7.589,3.93-15.736,7.651-24.436,7.818c-9.091,0.174-17.883-6.643-26.227-0.539
					c-12.135,8.876-4.982,27.071,8.945,26.904"/>
				
					<path fill="none" stroke="#7DACBC" stroke-width="3.4984" stroke-linecap="round" stroke-linejoin="round" stroke-miterlimit="10" d="
					M1064.959,394.886c-3.133,3.013-5.332,7.284-5.786,10.699c-0.718,11.345,7.425,18.344,17.504,19.684
					c11.345,0.719,14.596-11.868,19.708-20.656c2.831-4.867,7.033-10.253,12.133-12.754c3.23-1.584,6.461-3.168,9.69-4.752
					c9.223-4.522,18.444-9.044,27.667-13.566c5.936-2.911,11.872-5.822,17.809-8.732c2.504-1.228,4.684-2.428,7.433-3.067
					c6.443-1.497,12.364-0.548,18.636,1.046c5.449,1.385,10.926,2.061,15.658-1.635c11.934-9.322,3.897-27.58-10.392-26.531"/>
			</g>
			<polygon fill="#7DACBC" points="1061.349,398.48 1056.388,397.451 1051.431,394.377 1047.498,389.764 1046.45,384.439 
				1046.807,379.409 1048.731,375.248 1052.32,371.569 1057.377,369.089 1064.327,368.886 1072.112,370.773 1078.785,371.64 
				1084.652,371.019 1091.375,369.175 1098.163,366.355 1140.373,345.406 1148.072,340.913 1154.681,335.343 1160.009,328.195 
				1164.346,320.62 1167.817,315.475 1173.125,310.465 1180.757,308.044 1187.254,307.998 1193.912,311.957 1196.698,319.479 
				1197.522,326.191 1196.369,331.365 1194.792,334.504 1199.98,335.009 1204.644,337.279 1208.4,341.503 1210.896,348.313 
				1209.697,356.168 1202.799,363.042 1193.181,363.452 1184.805,361.614 1176.521,360.893 1168.967,362.312 1159.646,366.833 
				1112.432,389.985 1103.417,395.131 1097.818,401.801 1092.969,410.586 1088.656,418.342 1083.475,423.525 1075.617,425.029 
				1069.316,423.092 1063.655,419.084 1060.188,414.543 1058.919,407.926 1059.952,401.817 			"/>
		</g>
		<g>
			<g id="hueso_12_">
				
					<path fill="none" stroke="#7DACBC" stroke-width="3.4984" stroke-linecap="round" stroke-linejoin="round" stroke-miterlimit="10" d="
					M851.871,102.464c0.743-7.208-3.015-14.009-9.884-18.161c-7.234-4.605-14.631-1.62-18.134,3.019
					c-7.753,7.43-4.572,17.973-2.689,27.964c1.836,7.946,0.652,15.909-2.176,23.463c-3.654,9.761-7.699,19.31-11.783,28.922
					c-1.791,4.214-3.796,8.347-5.482,12.57c-3.168,7.937-6.896,16.081-13.366,21.898c-6.762,6.08-17.87,6.675-20.188,16.75
					c-3.37,14.652,13.942,23.733,24.366,14.496"/>
				
					<path fill="none" stroke="#7DACBC" stroke-width="3.4984" stroke-linecap="round" stroke-linejoin="round" stroke-miterlimit="10" d="
					M792.828,228.829c-0.398,4.328,0.732,8.997,2.624,11.877c6.879,9.05,17.616,9.017,26.115,3.436
					c9.051-6.878,3.274-18.524,1.392-28.516c-1.042-5.533-1.389-12.356,0.833-17.583c1.406-3.312,2.813-6.623,4.22-9.934
					c4.017-9.453,8.033-18.907,12.05-28.36c2.585-6.085,5.171-12.17,7.756-18.255c1.091-2.567,1.954-4.9,3.615-7.183
					c3.894-5.348,8.992-8.503,14.778-11.4c5.028-2.518,9.612-5.589,10.773-11.48c2.927-14.858-15.096-23.409-25.217-13.267"/>
			</g>
			<polygon fill="#7DACBC" points="792.449,233.91 788.024,236.376 782.265,237.294 776.271,236.378 771.996,233.036 
				768.975,228.999 767.708,224.593 768.016,219.462 770.218,214.279 775.342,209.578 782.464,205.913 788.077,202.203 
				792.108,197.895 795.987,192.102 799.276,185.528 817.494,142.069 820.378,133.635 821.732,125.099 821.086,116.208 
				819.41,107.641 818.67,101.478 819.407,94.217 823.595,87.393 828.478,83.107 836.104,81.746 843.133,85.612 848.146,90.15 
				850.659,94.817 851.52,98.223 855.774,95.21 860.786,93.876 866.391,94.614 872.733,98.132 876.966,104.857 876.245,114.568 
				869.239,121.171 861.702,125.261 854.965,130.134 850.18,136.15 846.089,145.667 825.526,194.065 822.075,203.855 
				822.205,212.562 824.284,222.379 826.097,231.066 825.568,238.376 820.609,244.654 814.577,247.311 807.674,247.983 
				802.081,246.817 796.791,242.643 793.576,237.346 			"/>
		</g>
		<polygon fill="#EFEC7F" points="551.087,349.018 549.319,353.766 545.531,358.201 540.376,361.391 534.954,361.621 
			530.035,360.508 526.213,357.977 523.12,353.872 521.433,348.499 522.283,341.598 525.326,334.188 527.192,327.723 
			527.465,321.829 526.659,314.904 524.898,307.768 510.574,262.875 507.296,254.585 502.791,247.21 496.531,240.863 
			489.699,235.43 485.137,231.22 480.989,225.216 479.749,217.306 480.686,210.877 485.606,204.894 493.463,203.277 
			500.223,203.478 505.163,205.4 508.027,207.434 509.311,202.381 512.26,198.115 517.004,195.041 524.113,193.604 531.697,195.977 
			537.447,203.835 536.398,213.405 533.315,221.407 531.349,229.485 531.61,237.168 534.669,247.064 550.415,297.237 
			554.138,306.927 559.885,313.47 567.835,319.592 574.85,325.028 579.189,330.934 579.488,338.928 576.62,344.864 571.803,349.853 
			566.79,352.594 560.056,352.848 554.173,350.903 		"/>
		<g>
			<g id="hueso_14_">
				
					<path fill="none" stroke="#7DACBC" stroke-width="3.4984" stroke-linecap="round" stroke-linejoin="round" stroke-miterlimit="10" d="
					M511.656,211.206c-4.112-5.965-11.386-8.7-19.307-7.399c-8.493,1.192-12.181,8.264-11.834,14.067
					c-1.075,10.684,8.188,16.64,16.106,23.018c6.554,4.853,10.822,11.678,13.575,19.261c3.556,9.797,6.677,19.687,9.81,29.65
					c1.374,4.368,2.53,8.814,3.989,13.121c2.742,8.094,5.193,16.709,4.047,25.334c-1.197,9.014-9.261,16.678-4.485,25.847
					c6.947,13.333,26.012,9.004,27.945-4.79"/>
				
					<path fill="none" stroke="#7DACBC" stroke-width="3.4984" stroke-linecap="round" stroke-linejoin="round" stroke-miterlimit="10" d="
					M548.767,345.656c2.506,3.551,6.397,6.368,9.706,7.332c11.107,2.419,19.253-4.576,22.096-14.338
					c2.42-11.107-9.533-16.217-17.451-22.595c-4.385-3.532-9.077-8.498-10.781-13.916c-1.079-3.432-2.158-6.864-3.237-10.296
					c-3.081-9.798-6.162-19.596-9.243-29.395c-1.983-6.307-3.966-12.614-5.95-18.921c-0.836-2.661-1.695-4.996-1.912-7.81
					c-0.509-6.596,1.321-12.306,3.842-18.265c2.19-5.179,3.684-10.491,0.743-15.726c-7.417-13.203-26.678-8.009-27.794,6.275"/>
			</g>
			<polygon fill="#7DACBC" points="551.777,349.767 550.012,354.516 546.226,358.953 541.073,362.146 535.651,362.378 
				530.731,361.269 526.908,358.739 523.812,354.636 522.123,349.264 522.969,342.363 526.008,334.951 527.87,328.485 
				528.14,322.591 527.33,315.667 525.565,308.531 511.214,263.647 507.933,255.359 503.423,247.987 497.159,241.643 
				490.324,236.214 485.76,232.006 481.608,226.004 480.364,218.095 481.296,211.666 486.214,205.68 494.07,204.059 500.83,204.255 
				505.771,206.175 508.637,208.207 509.917,203.154 512.864,198.886 517.606,195.809 524.714,194.368 532.299,196.736 
				538.055,204.592 537.011,214.162 533.933,222.166 531.971,230.246 532.236,237.928 535.301,247.822 551.075,297.986 
				554.804,307.674 560.555,314.213 568.509,320.332 575.526,325.763 579.869,331.667 580.172,339.661 577.308,345.598 
				572.493,350.59 567.481,353.333 560.748,353.591 554.864,351.649 			"/>
		</g>
		<polygon fill="#7DACBC" points="1335.84,203.793 1338.992,207.759 1340.833,213.293 1340.903,219.355 1338.299,224.117 
			1334.807,227.754 1330.665,229.719 1325.552,230.249 1320.08,228.918 1314.609,224.626 1309.836,218.193 1305.264,213.257 
			1300.358,209.979 1294.012,207.093 1286.991,204.915 1241.151,193.997 1232.36,192.521 1223.718,192.571 1215.049,194.653 
			1206.868,197.698 1200.907,199.429 1193.623,199.881 1186.209,196.857 1181.188,192.735 1178.605,185.431 1181.279,177.868 
			1184.942,172.184 1189.14,168.947 1192.36,167.543 1188.697,163.835 1186.567,159.106 1186.384,153.457 1188.825,146.626 
			1194.773,141.358 1204.473,140.492 1212.126,146.333 1217.386,153.106 1223.289,158.962 1230.002,162.706 1240.057,165.197 
			1291.151,177.627 1301.372,179.442 1309.942,177.9 1319.292,174.254 1327.569,171.055 1334.868,170.389 1341.867,174.262 
			1345.47,179.783 1347.254,186.485 1347.011,192.194 1343.751,198.091 1339.048,202.124 		"/>
		<polygon fill="#7DACBC" points="1185.401,736.898 1190.319,738.116 1195.155,741.375 1198.91,746.135 1199.754,751.497 
			1199.207,756.509 1197.125,760.594 1193.397,764.133 1188.25,766.419 1181.298,766.358 1173.59,764.175 1166.956,763.055 
			1161.069,763.453 1154.28,765.04 1147.39,767.599 1104.413,786.926 1096.549,791.123 1089.733,796.437 1084.137,803.376 
			1079.515,810.781 1075.85,815.792 1070.354,820.594 1062.637,822.724 1056.143,822.523 1049.64,818.313 1047.142,810.69 
			1046.574,803.952 1047.924,798.826 1049.618,795.749 1044.453,795.046 1039.88,792.601 1036.287,788.237 1034.053,781.336 
			1035.549,773.533 1042.704,766.927 1052.331,766.883 1060.631,769.038 1068.881,770.075 1076.484,768.944 1085.97,764.781 
			1134.031,743.443 1143.235,738.643 1149.084,732.191 1154.265,723.597 1158.869,716.011 1164.244,711.03 1172.153,709.826 
			1178.376,712 1183.88,716.221 1187.172,720.891 1188.188,727.552 1186.923,733.618 		"/>
		<g id="hueso_13_">
			
				<path fill="none" stroke="#7DACBC" stroke-width="3.4984" stroke-linecap="round" stroke-linejoin="round" stroke-miterlimit="10" d="
				M1052.258,792.41c-5.464,4.76-7.359,12.295-5.173,20.019c2.145,8.304,9.587,11.17,15.314,10.17
				c10.737-0.139,15.608-10.015,21.052-18.602c4.082-7.061,10.382-12.072,17.604-15.664c9.332-4.64,18.807-8.857,28.353-13.096
				c4.185-1.857,8.472-3.51,12.586-5.445c7.732-3.638,16.016-7.046,24.715-6.882c9.092,0.172,17.617,7.318,26.188,1.537
				c12.464-8.408,6.01-26.862-7.914-27.225"/>
			
				<path fill="none" stroke="#7DACBC" stroke-width="3.4984" stroke-linecap="round" stroke-linejoin="round" stroke-miterlimit="10" d="
				M1181.656,740.352c3.245-2.891,5.605-7.075,6.188-10.471c1.15-11.31-6.721-18.613-16.741-20.336
				c-11.31-1.149-15.036,11.304-20.48,19.892c-3.014,4.756-7.418,9.979-12.609,12.283c-3.288,1.459-6.576,2.919-9.864,4.379
				c-9.388,4.168-18.775,8.336-28.163,12.503c-6.043,2.684-12.085,5.366-18.128,8.049c-2.549,1.132-4.772,2.248-7.544,2.781
				c-6.496,1.251-12.376,0.077-18.582-1.754c-5.394-1.592-10.84-2.476-15.709,1.037c-12.281,8.861-4.945,27.411,9.374,26.907"/>
		</g>
	</g>
	<g id="circulos">
		<path fill="#B0DEEA" d="M441.444,1075.87c-9.658,3.584-11.676,17.733-1.374,21.912c4.365,1.771,9.77,0.556,12.958-2.911
			s3.947-8.954,1.818-13.155C452.512,1077.109,446.467,1074.005,441.444,1075.87z"/>
		<path fill="#B0DEEA" d="M-133.71,711.382c-16.181,6.004-19.562,29.712-2.302,36.712c7.313,2.966,16.368,0.933,21.71-4.876
			s6.612-15.002,3.046-22.042C-115.166,713.458-125.295,708.259-133.71,711.382z"/>
		<path fill="#B0DEEA" d="M93.29,454.382c-16.181,6.004-19.562,29.711-2.302,36.712c7.313,2.966,16.368,0.933,21.71-4.876
			c5.342-5.809,6.612-15.002,3.046-22.042C111.834,456.458,101.705,451.26,93.29,454.382z"/>
		<path fill="#B0DEEA" d="M296.29,629.382c-16.181,6.004-19.562,29.712-2.302,36.712c7.313,2.966,16.368,0.933,21.71-4.876
			s6.612-15.002,3.046-22.042C314.834,631.458,304.705,626.259,296.29,629.382z"/>
		<path fill="#B0DEEA" d="M81.444,532.87c-9.658,3.583-11.676,17.733-1.374,21.912c4.365,1.771,9.77,0.557,12.958-2.911
			c3.188-3.467,3.947-8.954,1.818-13.156C92.512,534.108,86.467,531.005,81.444,532.87z"/>
		<path fill="#B0DEEA" d="M226.444,674.87c-9.658,3.583-11.676,17.733-1.374,21.912c4.365,1.771,9.77,0.556,12.958-2.911
			s3.947-8.954,1.818-13.155C237.512,676.109,231.467,673.005,226.444,674.87z"/>
		<path fill="#B0DEEA" d="M471.444,722.87c-9.658,3.583-11.676,17.733-1.374,21.912c4.365,1.771,9.77,0.556,12.958-2.911
			s3.947-8.954,1.818-13.155C482.512,724.109,476.467,721.005,471.444,722.87z"/>
		<path fill="#B0DEEA" d="M193.396,587.178c-6.775,2.514-8.191,12.44-0.964,15.371c3.063,1.242,6.854,0.391,9.09-2.042
			s2.769-6.281,1.275-9.229C201.16,588.047,196.919,585.871,193.396,587.178z"/>
		<path fill="#B0DEEA" d="M541.29,432.382c-16.181,6.004-19.562,29.711-2.302,36.712c7.313,2.966,16.368,0.933,21.71-4.876
			c5.342-5.809,6.612-15.002,3.046-22.042C559.834,434.458,549.705,429.26,541.29,432.382z"/>
		<path fill="#B0DEEA" d="M502.444,484.87c-9.658,3.583-11.676,17.733-1.374,21.912c4.365,1.771,9.77,0.557,12.958-2.911
			c3.188-3.467,3.947-8.954,1.818-13.156C513.512,486.108,507.467,483.005,502.444,484.87z"/>
		<path fill="#B0DEEA" d="M451.396,447.178c-6.774,2.514-8.19,12.44-0.964,15.371c3.063,1.242,6.854,0.391,9.09-2.042
			s2.769-6.281,1.275-9.229C459.16,448.047,454.919,445.871,451.396,447.178z"/>
		<path fill="#B0DEEA" d="M574.396,653.178c-6.774,2.514-8.19,12.44-0.964,15.371c3.063,1.242,6.854,0.391,9.09-2.042
			c2.237-2.432,2.769-6.281,1.275-9.229C582.16,654.047,577.919,651.871,574.396,653.178z"/>
		<path fill="#B0DEEA" d="M-142.556,576.87c-9.657,3.583-11.676,17.733-1.374,21.912c4.365,1.771,9.77,0.557,12.958-2.911
			c3.188-3.467,3.947-8.954,1.818-13.155C-131.488,578.108-137.533,575.005-142.556,576.87z"/>
		<path fill="#B0DEEA" d="M-214.604,560.178c-6.775,2.514-8.191,12.44-0.964,15.371c3.062,1.242,6.853,0.391,9.09-2.042
			s2.769-6.281,1.275-9.229C-206.84,561.047-211.081,558.871-214.604,560.178z"/>
		<path fill="#B0DEEA" d="M-72.604,766.178c-6.775,2.514-8.191,12.44-0.964,15.371c3.063,1.242,6.854,0.391,9.09-2.042
			c2.237-2.432,2.769-6.281,1.275-9.229C-64.84,767.047-69.081,764.871-72.604,766.178z"/>
		<path fill="#B0DEEA" d="M705.29,711.382c-16.181,6.004-19.562,29.712-2.302,36.712c7.313,2.966,16.368,0.933,21.71-4.876
			s6.612-15.002,3.046-22.042C723.834,713.458,713.705,708.259,705.29,711.382z"/>
		<path fill="#B0DEEA" d="M932.29,454.382c-16.181,6.004-19.562,29.711-2.302,36.712c7.313,2.966,16.368,0.933,21.71-4.876
			c5.342-5.809,6.612-15.002,3.046-22.042C950.834,456.458,940.705,451.26,932.29,454.382z"/>
		<path fill="#B0DEEA" d="M1202.29,594.382c-16.181,6.004-19.562,29.712-2.302,36.712c7.313,2.966,16.368,0.933,21.71-4.876
			s6.612-15.002,3.046-22.042C1220.834,596.458,1210.705,591.26,1202.29,594.382z"/>
		<path fill="#B0DEEA" d="M920.444,532.87c-9.658,3.583-11.677,17.733-1.374,21.912c4.364,1.771,9.77,0.557,12.957-2.911
			c3.189-3.467,3.947-8.954,1.818-13.156C931.512,534.108,925.467,531.005,920.444,532.87z"/>
		<path fill="#B0DEEA" d="M1132.444,639.87c-9.658,3.584-11.677,17.733-1.374,21.912c4.364,1.771,9.77,0.556,12.957-2.911
			c3.189-3.467,3.947-8.954,1.818-13.155C1143.512,641.109,1137.467,638.005,1132.444,639.87z"/>
		<path fill="#B0DEEA" d="M1310.444,722.87c-9.658,3.583-11.677,17.733-1.374,21.912c4.364,1.771,9.77,0.556,12.957-2.911
			c3.189-3.467,3.947-8.954,1.818-13.155C1321.512,724.109,1315.467,721.005,1310.444,722.87z"/>
		<path fill="#B0DEEA" d="M1060.396,623.178c-6.774,2.514-8.19,12.44-0.964,15.371c3.063,1.242,6.854,0.391,9.091-2.042
			c2.236-2.432,2.769-6.281,1.274-9.229C1068.16,624.047,1063.919,621.871,1060.396,623.178z"/>
		<path fill="#B0DEEA" d="M1380.29,432.382c-16.181,6.004-19.562,29.711-2.302,36.712c7.313,2.966,16.367,0.933,21.71-4.876
			c5.342-5.809,6.612-15.002,3.046-22.042C1398.834,434.458,1388.705,429.26,1380.29,432.382z"/>
		<path fill="#B0DEEA" d="M1341.444,484.87c-9.658,3.583-11.677,17.733-1.374,21.912c4.364,1.771,9.77,0.557,12.958-2.911
			c3.188-3.467,3.946-8.954,1.817-13.156C1352.512,486.108,1346.467,483.005,1341.444,484.87z"/>
		<path fill="#B0DEEA" d="M1290.396,447.178c-6.774,2.514-8.19,12.44-0.964,15.371c3.063,1.242,6.854,0.391,9.091-2.042
			c2.236-2.432,2.769-6.281,1.274-9.229C1298.16,448.047,1293.919,445.871,1290.396,447.178z"/>
		<path fill="#B0DEEA" d="M1413.396,653.178c-6.774,2.514-8.19,12.44-0.964,15.371c3.063,1.242,6.854,0.391,9.091-2.042
			c2.236-2.432,2.769-6.281,1.274-9.229C1421.16,654.047,1416.919,651.871,1413.396,653.178z"/>
		<path fill="#B0DEEA" d="M696.444,576.87c-9.658,3.583-11.677,17.733-1.374,21.912c4.364,1.771,9.77,0.557,12.957-2.911
			c3.189-3.467,3.947-8.954,1.818-13.155C707.512,578.108,701.467,575.005,696.444,576.87z"/>
		<path fill="#B0DEEA" d="M624.396,560.178c-6.774,2.514-8.19,12.44-0.964,15.371c3.063,1.242,6.854,0.391,9.091-2.042
			c2.236-2.432,2.769-6.281,1.274-9.229C632.16,561.047,627.919,558.871,624.396,560.178z"/>
		<path fill="#B0DEEA" d="M766.396,766.178c-6.774,2.514-8.19,12.44-0.964,15.371c3.063,1.242,6.854,0.391,9.091-2.042
			c2.236-2.432,2.769-6.281,1.274-9.229C774.16,767.047,769.919,764.871,766.396,766.178z"/>
		<path fill="#B0DEEA" d="M-133.71,296.382c-16.181,6.004-19.562,29.711-2.302,36.712c7.313,2.966,16.368,0.933,21.71-4.876
			c5.342-5.809,6.612-15.002,3.046-22.042C-115.166,298.458-125.295,293.26-133.71,296.382z"/>
		<path fill="#B0DEEA" d="M93.29,39.382c-16.181,6.004-19.562,29.711-2.302,36.712c7.313,2.966,16.368,0.933,21.71-4.876
			c5.342-5.809,6.612-15.002,3.046-22.042C111.834,41.458,101.705,36.26,93.29,39.382z"/>
		<path fill="#B0DEEA" d="M273.29,299.382c-16.181,6.004-19.562,29.711-2.302,36.712c7.313,2.966,16.368,0.933,21.71-4.876
			c5.342-5.809,6.612-15.002,3.046-22.042C291.834,301.458,281.705,296.26,273.29,299.382z"/>
		<path fill="#B0DEEA" d="M81.444,117.869c-9.658,3.584-11.676,17.734-1.374,21.912c4.365,1.771,9.77,0.557,12.958-2.91
			c3.188-3.467,3.947-8.954,1.818-13.156C92.512,119.108,86.467,116.005,81.444,117.869z"/>
		<path fill="#B0DEEA" d="M203.444,344.87c-9.658,3.583-11.676,17.733-1.374,21.912c4.365,1.771,9.77,0.557,12.958-2.911
			c3.188-3.467,3.947-8.954,1.818-13.156C214.512,346.108,208.467,343.005,203.444,344.87z"/>
		<path fill="#B0DEEA" d="M471.444,307.87c-9.658,3.583-11.676,17.733-1.374,21.912c4.365,1.771,9.77,0.557,12.958-2.911
			c3.188-3.467,3.947-8.954,1.818-13.156C482.512,309.108,476.467,306.005,471.444,307.87z"/>
		<path fill="#B0DEEA" d="M154.396,243.178c-6.775,2.514-8.191,12.44-0.964,15.371c3.063,1.242,6.854,0.391,9.09-2.042
			s2.769-6.281,1.275-9.229C162.16,244.047,157.919,241.871,154.396,243.178z"/>
		<path fill="#B0DEEA" d="M370.396-11.822c-6.774,2.514-8.19,12.44-0.964,15.372c3.063,1.242,6.854,0.39,9.09-2.042
			s2.769-6.281,1.275-9.229C378.16-10.953,373.919-13.129,370.396-11.822z"/>
		<path fill="#B0DEEA" d="M541.29,17.382c-16.181,6.004-19.562,29.711-2.302,36.712c7.313,2.966,16.368,0.933,21.71-4.876
			c5.342-5.809,6.612-15.002,3.046-22.042C559.834,19.458,549.705,14.26,541.29,17.382z"/>
		<path fill="#B0DEEA" d="M502.444,69.869c-9.658,3.584-11.676,17.734-1.374,21.912c4.365,1.771,9.77,0.557,12.958-2.91
			c3.188-3.467,3.947-8.954,1.818-13.156C513.512,71.108,507.467,68.005,502.444,69.869z"/>
		<path fill="#B0DEEA" d="M451.396,32.178c-6.774,2.514-8.19,12.44-0.964,15.372c3.063,1.242,6.854,0.39,9.09-2.042
			s2.769-6.281,1.275-9.229C459.16,33.047,454.919,30.871,451.396,32.178z"/>
		<path fill="#B0DEEA" d="M574.396,238.178c-6.774,2.514-8.19,12.44-0.964,15.371c3.063,1.242,6.854,0.391,9.09-2.042
			s2.769-6.281,1.275-9.229C582.16,239.047,577.919,236.871,574.396,238.178z"/>
		<path fill="#B0DEEA" d="M-142.556,161.869c-9.657,3.584-11.676,17.734-1.374,21.912c4.365,1.771,9.77,0.557,12.958-2.91
			c3.188-3.467,3.947-8.954,1.818-13.156C-131.488,163.108-137.533,160.005-142.556,161.869z"/>
		<path fill="#B0DEEA" d="M-214.604,145.178c-6.775,2.514-8.191,12.44-0.964,15.372c3.062,1.242,6.853,0.39,9.09-2.042
			s2.769-6.281,1.275-9.229C-206.84,146.047-211.081,143.871-214.604,145.178z"/>
		<path fill="#B0DEEA" d="M-72.604,351.178c-6.775,2.514-8.191,12.44-0.964,15.371c3.063,1.242,6.854,0.391,9.09-2.042
			s2.769-6.281,1.275-9.229C-64.84,352.047-69.081,349.871-72.604,351.178z"/>
		<path fill="#B0DEEA" d="M705.29,296.382c-16.181,6.004-19.562,29.711-2.302,36.712c7.313,2.966,16.368,0.933,21.71-4.876
			c5.342-5.809,6.612-15.002,3.046-22.042C723.834,298.458,713.705,293.26,705.29,296.382z"/>
		<path fill="#B0DEEA" d="M932.29,39.382c-16.181,6.004-19.562,29.711-2.302,36.712c7.313,2.966,16.368,0.933,21.71-4.876
			c5.342-5.809,6.612-15.002,3.046-22.042C950.834,41.458,940.705,36.26,932.29,39.382z"/>
		<path fill="#B0DEEA" d="M1135.29,214.382c-16.181,6.004-19.562,29.711-2.302,36.712c7.313,2.966,16.368,0.933,21.71-4.876
			c5.342-5.809,6.612-15.002,3.046-22.042C1153.834,216.458,1143.705,211.26,1135.29,214.382z"/>
		<path fill="#B0DEEA" d="M993.444,154.869c-9.658,3.584-11.677,17.734-1.374,21.912c4.364,1.771,9.77,0.557,12.957-2.91
			c3.189-3.467,3.947-8.954,1.818-13.156C1004.512,156.108,998.467,153.005,993.444,154.869z"/>
		<path fill="#B0DEEA" d="M1065.444,259.87c-9.658,3.583-11.677,17.733-1.374,21.912c4.364,1.771,9.77,0.557,12.957-2.91
			c3.189-3.467,3.947-8.954,1.818-13.156C1076.512,261.108,1070.467,258.005,1065.444,259.87z"/>
		<path fill="#B0DEEA" d="M1310.444,307.87c-9.658,3.583-11.677,17.733-1.374,21.912c4.364,1.771,9.77,0.557,12.957-2.911
			c3.189-3.467,3.947-8.954,1.818-13.156C1321.512,309.108,1315.467,306.005,1310.444,307.87z"/>
		<path fill="#B0DEEA" d="M993.396,243.178c-6.774,2.514-8.19,12.44-0.964,15.371c3.063,1.242,6.854,0.391,9.091-2.042
			c2.236-2.432,2.769-6.281,1.274-9.229C1001.16,244.047,996.919,241.871,993.396,243.178z"/>
		<path fill="#B0DEEA" d="M1380.29,17.382c-16.181,6.004-19.562,29.711-2.302,36.712c7.313,2.966,16.367,0.933,21.71-4.876
			c5.342-5.809,6.612-15.002,3.046-22.042C1398.834,19.458,1388.705,14.26,1380.29,17.382z"/>
		<path fill="#B0DEEA" d="M1341.444,69.869c-9.658,3.584-11.677,17.734-1.374,21.912c4.364,1.771,9.77,0.557,12.958-2.91
			c3.188-3.467,3.946-8.954,1.817-13.156C1352.512,71.108,1346.467,68.005,1341.444,69.869z"/>
		<path fill="#B0DEEA" d="M1290.396,32.178c-6.774,2.514-8.19,12.44-0.964,15.372c3.063,1.242,6.854,0.39,9.091-2.042
			c2.236-2.432,2.769-6.281,1.274-9.229C1298.16,33.047,1293.919,30.871,1290.396,32.178z"/>
		<path fill="#B0DEEA" d="M1413.396,238.178c-6.774,2.514-8.19,12.44-0.964,15.371c3.063,1.242,6.854,0.391,9.091-2.042
			c2.236-2.432,2.769-6.281,1.274-9.229C1421.16,239.047,1416.919,236.871,1413.396,238.178z"/>
		<path fill="#B0DEEA" d="M696.444,161.869c-9.658,3.584-11.677,17.734-1.374,21.912c4.364,1.771,9.77,0.557,12.957-2.91
			c3.189-3.467,3.947-8.954,1.818-13.156C707.512,163.108,701.467,160.005,696.444,161.869z"/>
		<path fill="#B0DEEA" d="M624.396,145.178c-6.774,2.514-8.19,12.44-0.964,15.372c3.063,1.242,6.854,0.39,9.091-2.042
			c2.236-2.432,2.769-6.281,1.274-9.229C632.16,146.047,627.919,143.871,624.396,145.178z"/>
		<path fill="#B0DEEA" d="M766.396,351.178c-6.774,2.514-8.19,12.44-0.964,15.371c3.063,1.242,6.854,0.391,9.091-2.042
			c2.236-2.432,2.769-6.281,1.274-9.229C774.16,352.047,769.919,349.871,766.396,351.178z"/>
		<path fill="#B0DEEA" d="M-133.71,1123.382c-16.181,6.004-19.562,29.712-2.302,36.712c7.313,2.966,16.368,0.933,21.71-4.876
			s6.612-15.002,3.046-22.042C-115.166,1125.458-125.295,1120.259-133.71,1123.382z"/>
		<path fill="#B0DEEA" d="M93.29,866.382c-16.181,6.004-19.562,29.712-2.302,36.712c7.313,2.966,16.368,0.933,21.71-4.876
			s6.612-15.002,3.046-22.042C111.834,868.458,101.705,863.259,93.29,866.382z"/>
		<path fill="#B0DEEA" d="M276.29,1065.382c-16.181,6.004-19.562,29.712-2.302,36.712c7.313,2.966,16.368,0.933,21.71-4.876
			s6.612-15.002,3.046-22.042C294.834,1067.458,284.705,1062.259,276.29,1065.382z"/>
		<path fill="#B0DEEA" d="M81.444,944.87c-9.658,3.583-11.676,17.733-1.374,21.912c4.365,1.771,9.77,0.556,12.958-2.911
			s3.947-8.954,1.818-13.155C92.512,946.109,86.467,943.005,81.444,944.87z"/>
		<path fill="#B0DEEA" d="M206.444,1110.87c-9.658,3.583-11.676,17.733-1.374,21.912c4.365,1.771,9.77,0.556,12.958-2.911
			s3.947-8.954,1.818-13.155C217.512,1112.109,211.467,1109.005,206.444,1110.87z"/>
		<path fill="#B0DEEA" d="M193.396,986.178c-6.775,2.514-8.191,12.44-0.964,15.371c3.063,1.242,6.854,0.391,9.09-2.042
			c2.237-2.432,2.769-6.281,1.275-9.229C201.16,987.047,196.919,984.871,193.396,986.178z"/>
		<path fill="#B0DEEA" d="M541.29,844.382c-16.181,6.004-19.562,29.712-2.302,36.712c7.313,2.966,16.368,0.933,21.71-4.876
			s6.612-15.002,3.046-22.042C559.834,846.458,549.705,841.259,541.29,844.382z"/>
		<path fill="#B0DEEA" d="M502.444,896.87c-9.658,3.583-11.676,17.733-1.374,21.912c4.365,1.771,9.77,0.556,12.958-2.911
			s3.947-8.954,1.818-13.155C513.512,898.109,507.467,895.005,502.444,896.87z"/>
		<path fill="#B0DEEA" d="M451.396,859.178c-6.774,2.514-8.19,12.44-0.964,15.371c3.063,1.242,6.854,0.391,9.09-2.042
			c2.237-2.432,2.769-6.281,1.275-9.229C459.16,860.047,454.919,857.871,451.396,859.178z"/>
		<path fill="#B0DEEA" d="M574.396,1037.178c-6.774,2.514-8.19,12.44-0.964,15.371c3.063,1.242,6.854,0.391,9.09-2.042
			c2.237-2.432,2.769-6.281,1.275-9.229C582.16,1038.047,577.919,1035.871,574.396,1037.178z"/>
		<path fill="#B0DEEA" d="M-142.556,988.87c-9.657,3.583-11.676,17.733-1.374,21.912c4.365,1.771,9.77,0.556,12.958-2.911
			s3.947-8.954,1.818-13.155C-131.488,990.109-137.533,987.005-142.556,988.87z"/>
		<path fill="#B0DEEA" d="M-214.604,972.178c-6.775,2.514-8.191,12.44-0.964,15.371c3.062,1.242,6.853,0.391,9.09-2.042
			c2.237-2.432,2.769-6.281,1.275-9.229C-206.84,973.047-211.081,970.871-214.604,972.178z"/>
		<path fill="#B0DEEA" d="M-72.604,1178.178c-6.775,2.514-8.191,12.44-0.964,15.371c3.063,1.242,6.854,0.391,9.09-2.042
			c2.237-2.432,2.769-6.281,1.275-9.229C-64.84,1179.047-69.081,1176.871-72.604,1178.178z"/>
		<path fill="#B0DEEA" d="M691.29,1072.382c-16.181,6.004-19.562,29.712-2.302,36.712c7.313,2.966,16.368,0.933,21.71-4.876
			s6.612-15.002,3.046-22.042C709.834,1074.458,699.705,1069.259,691.29,1072.382z"/>
		<path fill="#B0DEEA" d="M932.29,866.382c-16.181,6.004-19.562,29.712-2.302,36.712c7.313,2.966,16.368,0.933,21.71-4.876
			s6.612-15.002,3.046-22.042C950.834,868.458,940.705,863.259,932.29,866.382z"/>
		<path fill="#B0DEEA" d="M1090.29,1031.382c-16.181,6.004-19.562,29.712-2.302,36.712c7.313,2.966,16.368,0.933,21.71-4.876
			s6.612-15.002,3.046-22.042C1108.834,1033.458,1098.705,1028.259,1090.29,1031.382z"/>
		<path fill="#B0DEEA" d="M920.444,944.87c-9.658,3.583-11.677,17.733-1.374,21.912c4.364,1.771,9.77,0.556,12.957-2.911
			c3.189-3.467,3.947-8.954,1.818-13.155C931.512,946.109,925.467,943.005,920.444,944.87z"/>
		<path fill="#B0DEEA" d="M992.444,1067.87c-9.658,3.584-11.677,17.733-1.374,21.912c4.364,1.771,9.77,0.556,12.957-2.911
			c3.189-3.467,3.947-8.954,1.818-13.155C1003.512,1069.109,997.467,1066.005,992.444,1067.87z"/>
		<path fill="#B0DEEA" d="M1310.444,1134.87c-9.658,3.583-11.677,17.733-1.374,21.912c4.364,1.771,9.77,0.556,12.957-2.911
			c3.189-3.467,3.947-8.954,1.818-13.155C1321.512,1136.109,1315.467,1133.005,1310.444,1134.87z"/>
		<path fill="#B0DEEA" d="M961.396,1157.178c-6.774,2.514-8.19,12.44-0.964,15.371c3.063,1.242,6.854,0.391,9.091-2.042
			c2.236-2.432,2.769-6.281,1.274-9.229C969.16,1158.047,964.919,1155.871,961.396,1157.178z"/>
		<path fill="#B0DEEA" d="M1380.29,844.382c-16.181,6.004-19.562,29.712-2.302,36.712c7.313,2.966,16.367,0.933,21.71-4.876
			c5.342-5.809,6.612-15.002,3.046-22.042C1398.834,846.458,1388.705,841.259,1380.29,844.382z"/>
		<path fill="#B0DEEA" d="M1341.444,896.87c-9.658,3.583-11.677,17.733-1.374,21.912c4.364,1.771,9.77,0.556,12.958-2.911
			s3.946-8.954,1.817-13.155C1352.512,898.109,1346.467,895.005,1341.444,896.87z"/>
		<path fill="#B0DEEA" d="M1290.396,859.178c-6.774,2.514-8.19,12.44-0.964,15.371c3.063,1.242,6.854,0.391,9.091-2.042
			c2.236-2.432,2.769-6.281,1.274-9.229C1298.16,860.047,1293.919,857.871,1290.396,859.178z"/>
		<path fill="#B0DEEA" d="M1424.396,1167.178c-6.774,2.514-8.19,12.44-0.964,15.371c3.063,1.242,6.854,0.391,9.091-2.042
			c2.236-2.432,2.769-6.281,1.274-9.229C1432.16,1168.047,1427.919,1165.871,1424.396,1167.178z"/>
		<path fill="#B0DEEA" d="M696.444,988.87c-9.658,3.583-11.677,17.733-1.374,21.912c4.364,1.771,9.77,0.556,12.957-2.911
			c3.189-3.467,3.947-8.954,1.818-13.155C707.512,990.109,701.467,987.005,696.444,988.87z"/>
		<path fill="#B0DEEA" d="M547.444,1180.87c-9.658,3.583-11.676,17.733-1.374,21.912c4.365,1.771,9.77,0.556,12.958-2.911
			s3.947-8.954,1.818-13.155C558.512,1182.109,552.467,1179.005,547.444,1180.87z"/>
		<path fill="#B0DEEA" d="M624.396,972.178c-6.774,2.514-8.19,12.44-0.964,15.371c3.063,1.242,6.854,0.391,9.091-2.042
			c2.236-2.432,2.769-6.281,1.274-9.229C632.16,973.047,627.919,970.871,624.396,972.178z"/>
		<path fill="#B0DEEA" d="M727.396,1178.178c-6.774,2.514-8.19,12.44-0.964,15.371c3.063,1.242,6.854,0.391,9.091-2.042
			c2.236-2.432,2.769-6.281,1.274-9.229C735.16,1179.047,730.919,1176.871,727.396,1178.178z"/>
	</g>
</g>
</svg>
